<?xml version="1.0" encoding="utf-8"?>
<svg width="811px" height="596px" viewBox="0 0 811 596" version="1.1" xmlns:xlink="http://www.w3.org/1999/xlink" xmlns="http://www.w3.org/2000/svg">
  <defs>
    <path d="M0 0L811 0L811 596L0 596L0 0Z" id="path_1" />
    <path d="M0 0L660 0L660 473L0 473L0 0Z" id="path_2" />
    <clipPath id="mask_1">
      <use xlink:href="#path_1" />
    </clipPath>
    <clipPath id="mask_2">
      <use xlink:href="#path_2" />
    </clipPath>
  </defs>
  <g id="svg">
    <path d="M0 0L811 0L811 596L0 596L0 0Z" id="Background" fill="#FFFFFF" fill-opacity="0" fill-rule="evenodd" stroke="none" />
    <path d="M603.007 0.344482L30.2443 0.344482L30.2443 390.052L603.007 390.052L603.007 0.344482L603.007 0.344482Z" id="Shape" fill="#E6E6E6" stroke="none" />
    <path d="M586.629 49.2234L46.6225 49.2234L46.6225 366.997L586.629 366.997L586.629 49.2234L586.629 49.2234Z" id="Shape" fill="#FFFFFF" stroke="none" />
    <path d="M602.763 0L30 0L30 25.8509L602.763 25.8509L602.763 0L602.763 0Z" id="Shape" fill="#D97706" stroke="none" />
    <path d="M48.083 18.0088C50.574 18.0088 52.5934 15.8635 52.5934 13.2171C52.5934 10.5707 50.574 8.42542 48.083 8.42542C45.5921 8.42542 43.5727 10.5707 43.5727 13.2171C43.5727 15.8635 45.5921 18.0088 48.083 18.0088L48.083 18.0088Z" id="Shape" fill="#FFFFFF" stroke="none" />
    <path d="M65.2013 18.0088C67.6923 18.0088 69.7116 15.8635 69.7116 13.2171C69.7116 10.5707 67.6923 8.42542 65.2013 8.42542C62.7103 8.42542 60.691 10.5707 60.691 13.2171C60.691 15.8635 62.7103 18.0088 65.2013 18.0088L65.2013 18.0088Z" id="Shape" fill="#FFFFFF" stroke="none" />
    <path d="M82.3196 18.0088C84.8105 18.0088 86.8299 15.8635 86.8299 13.2171C86.8299 10.5707 84.8105 8.42542 82.3196 8.42542C79.8286 8.42542 77.8092 10.5707 77.8092 13.2171C77.8092 15.8635 79.8286 18.0088 82.3196 18.0088L82.3196 18.0088Z" id="Shape" fill="#FFFFFF" stroke="none" />
    <path d="M218.681 75.3612L113.064 75.3612L113.064 197.095L218.681 197.095L218.681 75.3612L218.681 75.3612Z" id="Shape" fill="#E6E6E6" stroke="none" />
    <path d="M369.434 75.3612L263.816 75.3612L263.816 197.095L369.434 197.095L369.434 75.3612L369.434 75.3612Z" id="Shape" fill="#E6E6E6" stroke="none" />
    <path d="M520.185 75.3612L414.568 75.3612L414.568 197.095L520.185 197.095L520.185 75.3612L520.185 75.3612Z" id="Shape" fill="#E6E6E6" stroke="none" />
    <path d="M218.681 219.13L113.064 219.13L113.064 340.864L218.681 340.864L218.681 219.13L218.681 219.13Z" id="Shape" fill="#E6E6E6" stroke="none" />
    <path d="M369.434 219.13L263.816 219.13L263.816 340.864L369.434 340.864L369.434 219.13L369.434 219.13Z" id="Shape" fill="#E6E6E6" stroke="none" />
    <path d="M520.185 219.13L414.568 219.13L414.568 340.864L520.185 340.864L520.185 219.13L520.185 219.13Z" id="Shape" fill="#E6E6E6" stroke="none" />
    <path d="M289.344 250.416L308.641 242.31L310.885 282.836C310.885 282.836 314.924 295.232 313.578 300.001C313.578 300.001 314.475 308.106 312.231 308.583C309.987 309.059 303.703 310.013 303.259 309.536C302.815 309.058 302.81 307.628 302.81 307.628C302.81 307.628 298.322 310.966 297.873 314.78C297.873 314.78 279.025 320.978 278.576 315.256C278.127 309.535 288 304.767 288 304.767L295.629 292.371L289.344 250.416L289.344 250.416Z" id="Shape" fill="#FFFFFF" stroke="none" />
    <path d="M330.185 250.416L349.48 242.31L351.724 282.836C351.724 282.836 355.762 295.232 354.416 300.001C354.416 300.001 355.314 308.106 353.069 308.583C350.825 309.059 344.541 310.013 344.097 309.536C343.653 309.058 343.648 307.628 343.648 307.628C343.648 307.628 339.16 310.966 338.711 314.78C338.711 314.78 319.863 320.978 319.414 315.256C318.965 309.535 328.838 304.767 328.838 304.767L336.467 292.371L330.185 250.416L330.185 250.416Z" id="Shape" fill="#FFFFFF" stroke="none" />
    <path d="M332.07 93.9182C332.07 93.9182 327.961 106.116 332.722 111.617L328.753 126.107C328.753 126.107 342.855 171.053 338.826 177.331C338.826 177.331 323.784 185.321 293.696 174.477L305.918 124.109L304.172 102.849L306.589 92.8602L311.961 92.2939C311.961 92.2939 308.738 105.135 314.648 107.133C320.557 109.131 326.322 92.6149 326.322 92.6149L332.07 93.9182L332.07 93.9182Z" id="Shape" fill="#3F3D56" stroke="none" />
    <path d="M142.31 172.657L147.496 174.911L172.244 140.356L180.022 180.92L185.208 179.919C188.534 144.946 191.249 109.275 187.918 92.4035L168.709 91.5267L159.988 121.078L155.745 141.111L142.31 172.657L142.31 172.657Z" id="Shape" fill="#FFFFFF" stroke="none" />
    <path d="M457.026 92.127C457.026 92.127 449.949 102.579 450.295 106.797C450.641 111.014 455.128 179.778 455.128 179.778L465.657 180.329L462.548 130.818L465.136 117.432L471.523 179.778L484.468 180.146L472.904 99.2791L470.66 92.1279L457.026 92.127L457.026 92.127Z" id="Shape" fill="#FFFFFF" stroke="none" />
    <path d="M497.023 260.508C495.144 258.113 491.914 256.818 488.813 256.117C488.902 255.818 479.38 253.728 479.218 254.158L475.628 251.12L464.597 257.205L458.399 252.722L455.52 253.807C455.637 253.267 446.582 254.934 446.582 254.934C444.852 255 442.643 255.115 440.169 255.317C431.508 256.025 430.841 279.856 430.841 279.856C434.826 278.124 439.075 277.179 443.379 277.067L445.72 305.57C457.76 304.473 470.388 305.749 483.476 308.873L489.614 286.467L503.907 280.562C503.907 280.562 501.465 266.17 497.023 260.508L497.023 260.508Z" id="Shape" fill="#3F3D56" stroke="none" />
    <path d="M190.301 246.935C188.752 244.961 186.092 243.894 183.536 243.317C183.612 243.07 175.763 241.349 175.629 241.703L172.671 239.2L163.584 244.214L158.476 240.521L156.104 241.416C156.201 240.971 148.74 242.343 148.74 242.343C147.318 242.398 145.493 242.492 143.456 242.659C136.32 243.243 135.771 262.877 135.771 262.877C139.054 261.45 142.555 260.671 146.102 260.579L148.031 318.07C157.951 317.166 168.356 318.218 179.137 320.792L184.194 268.325L195.971 263.46C195.971 263.46 193.96 251.602 190.301 246.935L190.301 246.935Z" id="Shape" fill="#FFFFFF" stroke="none" />
    <g id="Mask-Group" transform="translate(0 61)">
      <path d="M0 0L660 0L660 473L0 473L0 0Z" id="Rectangle" fill="none" fill-rule="evenodd" stroke="none" />
      <g clip-path="url(#mask_2)">
        <g id="Group">
          <path d="M371.328 380.292L372.529 438.691L409.483 458.671L476.779 446.376L478.432 385.671L435.77 370.302L371.328 380.292L371.328 380.292Z" id="Shape" fill="#FFFFFF" stroke="none" />
          <path d="M409.386 459.301L371.947 439.059L370.727 379.774L435.828 369.682L435.966 369.732L479.034 385.247L477.356 446.884L409.386 459.301L409.386 459.301ZM373.112 438.324L409.579 458.04L476.203 445.868L477.83 386.094L435.713 370.921L371.928 380.809L373.112 438.324L373.112 438.324Z" id="Shape" fill="#CACACA" fill-rule="evenodd" stroke="none" />
          <path d="M408.658 396.126L408.513 396.067L371.11 380.852L371.545 379.73L408.805 394.886L478.351 385.073L478.513 386.269L408.658 396.126L408.658 396.126Z" id="Shape" fill="#CACACA" stroke="none" />
          <path d="M409.322 395.499L408.141 395.513L408.892 458.678L410.073 458.663L409.322 395.499L409.322 395.499Z" id="Shape" fill="#CACACA" stroke="none" />
          <path d="M400.665 391.728L390.448 387.51L455.356 376.929L465.572 381.146L400.665 391.728L400.665 391.728Z" id="Shape" fill="#CACACA" stroke="none" />
          <path d="M371.561 397.232L371.094 398.342L386.732 405.23L387.199 404.121L371.561 397.232L371.561 397.232Z" id="Shape" fill="#CACACA" stroke="none" />
          <path d="M378.642 417.156L378.175 418.265L393.813 425.153L394.28 424.044L378.642 417.156L378.642 417.156Z" id="Shape" fill="#D97706" stroke="none" />
          <path d="M435.526 388.298L436.921 456.092L479.818 479.284L557.938 465.012L559.856 394.543L510.333 376.702L435.526 388.298L435.526 388.298Z" id="Shape" fill="#D97706" stroke="none" />
          <path d="M479.706 480.017L436.244 456.519L434.828 387.698L510.4 375.983L510.561 376.041L560.555 394.051L558.608 465.602L479.706 480.017L479.706 480.017ZM437.597 455.665L479.929 478.552L557.269 464.422L559.158 395.034L510.267 377.421L436.223 388.899L437.597 455.665L437.597 455.665Z" id="Shape" fill="#3F3D56" fill-rule="evenodd" stroke="none" />
          <path d="M478.86 406.68L478.693 406.612L435.272 388.95L435.778 387.647L479.03 405.241L559.762 393.849L559.95 395.237L478.86 406.68L478.86 406.68Z" id="Shape" fill="#3F3D56" stroke="none" />
          <path d="M479.631 405.952L478.26 405.969L479.132 479.293L480.502 479.276L479.631 405.952L479.631 405.952Z" id="Shape" fill="#3F3D56" stroke="none" />
          <path d="M470.276 401.607L457.721 396.679L533.069 384.396L545.624 389.323L470.276 401.607L470.276 401.607Z" id="Shape" fill="#3F3D56" stroke="none" />
          <path d="M435.796 407.965L435.255 409.252L453.408 417.248L453.949 415.961L435.796 407.965L435.796 407.965Z" id="Shape" fill="#3F3D56" stroke="none" />
          <path d="M444.017 431.092L443.475 432.38L461.628 440.376L462.17 439.089L444.017 431.092L444.017 431.092Z" id="Shape" fill="#FFFFFF" stroke="none" />
          <path d="M86.1036 208.141C61.5357 198.614 41.8414 180.777 31.0521 158.282C25.0156 145.539 22.0685 131.72 20.3905 117.898C18.7442 104.338 18.408 90.034 24.7291 77.699C28.19 70.946 33.4869 65.136 40.1035 60.834C46.7201 56.533 54.4307 53.888 62.484 53.156C70.5374 52.424 78.6586 53.631 86.0565 56.659C93.4543 59.687 99.8764 64.433 104.697 70.434C108.846 75.599 111.763 81.796 111.837 88.227C111.994 101.714 100.247 112.539 95.0934 125.16C89.768 138.203 91.6874 152.655 92.5927 166.569C93.498 180.482 92.9242 195.567 83.7798 206.658" id="Shape" fill="#F2F2F2" stroke="none" />
          <path d="M526.725 378.691C552.67 373.08 575.311 358.525 590.013 338.007C598.267 326.372 603.669 313.2 607.821 299.831C611.894 286.714 614.809 272.662 610.805 259.527C608.612 252.335 604.439 245.79 598.692 240.53C592.946 235.271 585.821 231.475 578.013 229.513C570.204 227.552 561.979 227.491 554.137 229.338C546.296 231.184 539.107 234.874 533.27 240.049C528.246 244.503 524.25 250.164 523.015 256.493C520.424 269.768 530.051 282.249 532.852 295.487C535.747 309.168 531.244 323.121 527.837 336.701C524.431 350.281 522.272 365.242 529.285 377.586" id="Shape" fill="#F2F2F2" stroke="none" />
          <path d="M328.858 357.032C291.877 357.14 255.896 345.943 226.531 325.189C197.779 304.908 176.774 276.697 166.562 244.649L168.024 244.257C188.676 309.83 254.813 355.626 328.858 355.626C350.998 355.664 372.923 351.625 393.351 343.745L393.938 345.043C373.324 352.994 351.199 357.07 328.858 357.032L328.858 357.032Z" id="Shape" fill="#E6E6E6" stroke="none" />
          <path d="M488.724 154.793C466.757 89.952 402.512 46.386 328.858 46.386C307.033 46.35 285.412 50.274 265.227 57.937L264.648 56.637C291.65 46.427 321.053 42.836 350.002 46.212C378.951 49.588 406.463 59.817 429.867 75.905C458.351 95.607 479.441 123.046 490.177 154.374L488.724 154.793L488.724 154.793Z" id="Shape" fill="#E6E6E6" stroke="none" />
          <path d="M534.394 406.229C465.135 406.229 408.789 354.207 408.789 290.264C408.789 226.32 465.135 174.299 534.394 174.299C603.654 174.299 660 226.32 660 290.264C660 354.207 603.654 406.229 534.394 406.229L534.394 406.229ZM534.394 175.704C465.975 175.704 410.311 227.096 410.311 290.264C410.311 353.432 465.975 404.823 534.394 404.823C602.814 404.823 658.477 353.432 658.477 290.264C658.477 227.096 602.814 175.704 534.394 175.704L534.394 175.704Z" id="Shape" fill="#3F3D56" fill-rule="evenodd" stroke="none" />
          <path d="M125.606 231.93C56.3463 231.93 0 179.908 0 115.965C0 52.022 56.3463 0 125.606 0C194.865 0 251.211 52.022 251.211 115.965C251.211 179.908 194.865 231.93 125.606 231.93L125.606 231.93ZM125.606 1.4056C57.186 1.4056 1.52249 52.797 1.52249 115.965C1.52249 179.133 57.186 230.524 125.606 230.524C194.025 230.524 249.689 179.133 249.689 115.965C249.689 52.797 194.025 1.4056 125.606 1.4056L125.606 1.4056Z" id="Shape" fill="#3F3D56" fill-rule="evenodd" stroke="none" />
          <path d="M115.839 116.617L104.748 136.506L115.7 142.302C115.7 142.302 123.213 119.962 123.434 119.114C124.567 118.686 125.532 117.952 126.203 117.006C126.874 116.061 127.218 114.95 127.19 113.821C127.162 112.691 126.763 111.596 126.046 110.68C125.329 109.764 124.328 109.071 123.175 108.692C122.022 108.313 120.772 108.266 119.589 108.557C118.407 108.849 117.348 109.465 116.553 110.324C115.758 111.183 115.264 112.244 115.136 113.368C115.009 114.492 115.254 115.625 115.839 116.617L115.839 116.617Z" id="Shape" fill="#A0616A" stroke="none" />
          <path d="M58.9169 119.322C63.8646 136.246 81.6486 146.996 96.4163 159.882C98.2348 160.472 100.166 160.704 102.088 160.565C104.009 160.425 105.878 159.917 107.574 159.073C109.271 158.229 110.758 157.068 111.94 155.663C113.123 154.258 113.975 152.641 114.442 150.914L119.419 132.931L106.769 132.618L101.533 137.871L84.5933 126.727L58.9169 119.322L58.9169 119.322Z" id="Shape" fill="#3F3D56" stroke="none" />
          <path d="M515.721 308.283C517.869 308.412 519.877 309.311 521.319 310.787C522.76 312.263 523.521 314.2 523.439 316.186C523.416 316.589 523.356 316.99 523.261 317.384L547.652 331.572L534.167 337.078L513.072 322.761C511.332 322.27 509.816 321.261 508.762 319.891C507.708 318.522 507.175 316.868 507.246 315.189C507.296 314.234 507.549 313.298 507.992 312.433C508.434 311.569 509.056 310.793 509.823 310.151C510.59 309.508 511.487 309.011 512.462 308.689C513.436 308.366 514.471 308.224 515.505 308.27C515.577 308.274 515.649 308.278 515.721 308.283L515.721 308.283Z" id="Shape" fill="#FFB6B6" stroke="none" />
          <path d="M539.242 325.123L533.197 336.639L557.099 350.839C558.8 351.858 560.754 352.459 562.777 352.584C564.8 352.709 566.824 352.355 568.657 351.554C570.885 350.569 572.706 348.943 573.846 346.919C574.986 344.896 575.382 342.585 574.976 340.335L567.22 299.456C566.699 296.596 565.011 294.028 562.502 292.281C559.994 290.535 556.856 289.742 553.734 290.066C550.662 290.376 547.85 291.8 545.916 294.024C543.981 296.249 543.083 299.091 543.419 301.927C543.432 302.038 543.447 302.149 543.464 302.259C543.523 302.652 543.604 303.041 543.709 303.426L552.175 332.498L539.242 325.123L539.242 325.123Z" id="Shape" fill="#6C63FF" stroke="none" />
          <path d="M517.519 329.792L508.518 308.349C508.211 307.615 508.232 306.799 508.576 306.079C508.92 305.359 509.559 304.795 510.353 304.51L515.415 302.699C516.21 302.415 517.094 302.435 517.874 302.752C518.654 303.07 519.265 303.66 519.574 304.394L528.575 325.836C528.882 326.57 528.861 327.386 528.517 328.106C528.173 328.826 527.533 329.39 526.739 329.675L521.677 331.487C520.882 331.77 519.998 331.751 519.218 331.433C518.439 331.115 517.828 330.525 517.519 329.792L517.519 329.792Z" id="Shape" fill="#3F3D56" stroke="none" />
          <path d="M511.405 305.392C510.977 305.545 510.632 305.85 510.447 306.237C510.261 306.625 510.25 307.065 510.416 307.461L519.416 328.903C519.583 329.298 519.912 329.616 520.332 329.788C520.753 329.959 521.229 329.969 521.657 329.816L526.719 328.005C527.147 327.852 527.492 327.547 527.677 327.16C527.863 326.772 527.874 326.332 527.708 325.936L518.708 304.494C518.541 304.099 518.212 303.781 517.792 303.609C517.371 303.438 516.895 303.428 516.467 303.581L511.405 305.392L511.405 305.392Z" id="Shape" fill="#6C63FF" stroke="none" />
          <path d="M537.543 374.534L571.726 374.534L571.726 342.975L537.543 342.975L537.543 374.534L537.543 374.534Z" id="Shape" fill="#FFB8B8" stroke="none" />
          <path d="M456.48 435.918L443.426 431.863L436.156 464.67L445.001 467.418L456.48 435.918L456.48 435.918Z" id="Shape" fill="#FFB6B6" stroke="none" />
          <path d="M479.632 429.676L466.228 432.603L478.833 464.002L487.916 462.019L479.632 429.676L479.632 429.676Z" id="Shape" fill="#FFB6B6" stroke="none" />
          <path d="M570.5 382.779C577.351 424.948 486.115 400.017 486.115 400.017L457.509 436.45L440.761 433.639C440.761 433.639 448.297 411.767 461.755 382.446C467.731 369.425 535.596 372.607 535.596 372.607L537.005 362.397L575.828 361.694L570.5 382.779L570.5 382.779Z" id="Shape" fill="#2F2E41" stroke="none" />
          <path d="M483.235 390.97L458.387 391.498C462.37 423.129 465.882 435.747 465.882 435.747L480.346 431.53L483.235 390.97L483.235 390.97Z" id="Shape" fill="#2F2E41" stroke="none" />
          <path d="M550.972 291.692L557.852 283.527L567.667 283.134L568.646 290.813L573.51 292.884C578.365 309.915 579.115 327.723 575.706 345.051C575.055 345.618 574.578 346.335 574.327 347.128C574.075 347.921 574.057 348.762 574.275 349.563L574.591 350.724L574.561 350.766C573.527 352.274 573.176 354.097 573.584 355.841L575.906 359.651C576.74 361.021 577.24 362.542 577.372 364.109C577.504 365.676 577.265 367.25 576.671 368.723C576.078 370.196 575.144 371.531 573.934 372.637C572.725 373.743 571.269 374.592 569.668 375.126C555.393 379.903 542.011 381.682 532.111 368.277L528.998 321.56L550.972 291.692L550.972 291.692Z" id="Shape" fill="#6C63FF" stroke="none" />
          <path d="M558.18 285.695C568.202 285.695 576.326 278.194 576.326 268.942C576.326 259.689 568.202 252.188 558.18 252.188C548.158 252.188 540.033 259.689 540.033 268.942C540.033 278.194 548.158 285.695 558.18 285.695L558.18 285.695Z" id="Shape" fill="#FFB8B8" stroke="none" />
          <path d="M567.289 248.745C574.973 248.881 581.067 255.461 580.901 263.442C586.587 268.919 584.707 275.622 579.956 282.789C571.265 283.721 569.236 284.109 561.614 286.978L560.61 282.646L558.334 288.288C556.397 289.112 554.475 290.017 552.567 291.003C551.196 285.197 551.536 279.554 555.221 274.638C558.494 270.272 550.528 265.087 544.831 265.82L544.915 261.809L543.484 265.796C541.263 267.303 538.806 266.757 536.287 265.669C532.202 246.067 563.829 240.707 567.289 248.745L567.289 248.745Z" id="Shape" fill="#2F2E41" stroke="none" />
          <path d="M449.022 472.967L443.206 472.265L442.885 467.07L439.509 471.819L424.083 469.959C423.343 469.87 422.654 469.565 422.116 469.089C421.577 468.612 421.218 467.989 421.09 467.311C420.963 466.633 421.073 465.935 421.405 465.318C421.738 464.702 422.275 464.2 422.938 463.885L436.368 457.516L437.094 452.391L449.95 454.668L449.022 472.967L449.022 472.967Z" id="Shape" fill="#2F2E41" stroke="none" />
          <path d="M491.253 470.01L485.436 470.701L483.691 465.753L481.738 471.14L466.308 472.973C465.568 473.061 464.818 472.928 464.165 472.595C463.513 472.261 462.994 471.743 462.683 471.117C462.372 470.492 462.286 469.79 462.437 469.116C462.588 468.442 462.969 467.83 463.523 467.37L474.75 458.049L474.036 452.923L487.096 452.097L491.253 470.01L491.253 470.01Z" id="Shape" fill="#2F2E41" stroke="none" />
          <path d="M517.909 312.202C520.057 312.332 522.066 313.231 523.507 314.707C524.949 316.183 525.709 318.12 525.627 320.105C525.604 320.509 525.544 320.91 525.449 321.304L549.84 335.491L536.356 340.997L515.26 326.681C513.52 326.19 512.004 325.181 510.95 323.811C509.896 322.441 509.363 320.788 509.434 319.109C509.484 318.154 509.738 317.218 510.18 316.353C510.622 315.488 511.245 314.713 512.012 314.07C512.778 313.428 513.675 312.931 514.65 312.608C515.625 312.286 516.659 312.144 517.693 312.19C517.765 312.193 517.837 312.197 517.909 312.202L517.909 312.202Z" id="Shape" fill="#FFB6B6" stroke="none" />
          <path d="M541.43 329.043L535.385 340.558L559.287 354.759C560.988 355.778 562.943 356.379 564.966 356.504C566.989 356.629 569.013 356.274 570.845 355.474C573.074 354.489 574.895 352.862 576.034 350.839C577.174 348.815 577.57 346.505 577.164 344.255L569.408 303.376C568.887 300.516 567.199 297.948 564.691 296.201C562.182 294.455 559.044 293.662 555.922 293.986C554.401 294.139 552.928 294.568 551.587 295.247C550.245 295.926 549.062 296.843 548.104 297.944C547.146 299.045 546.433 300.31 546.004 301.666C545.576 303.022 545.441 304.443 545.608 305.847C545.621 305.958 545.636 306.068 545.653 306.179C545.711 306.572 545.793 306.961 545.897 307.346L554.364 336.418L541.43 329.043L541.43 329.043Z" id="Shape" fill="#6C63FF" stroke="none" />
          <path d="M84.0529 326.822L91.7202 330.015L108.71 304.231L97.3938 299.518L84.0529 326.822L84.0529 326.822Z" id="Shape" fill="#A0616A" stroke="none" />
          <path d="M80.1744 334.093L103.751 343.913L103.886 343.638C104.984 341.391 105.07 338.833 104.126 336.528C103.181 334.222 101.283 332.357 98.8496 331.343L96.0165 326.533L86.507 326.202L84.4489 325.345L80.1744 334.093L80.1744 334.093Z" id="Shape" fill="#2F2E41" stroke="none" />
          <path d="M179.014 291.757L187.111 289.659L182.197 259.821L170.244 262.919L179.014 291.757L179.014 291.757Z" id="Shape" fill="#A0616A" stroke="none" />
          <path d="M181.1 299.631L206.002 293.177L205.914 292.886C205.192 290.513 203.479 288.501 201.151 287.294C198.823 286.087 196.071 285.783 193.501 286.449L187.982 284.442L180.464 289.828L178.29 290.391L181.1 299.631L181.1 299.631Z" id="Shape" fill="#2F2E41" stroke="none" />
          <path d="M56.4528 204.574C56.6598 210.105 69.4014 225.028 76.1025 227.168C77.2415 227.532 77.9073 227.732 77.9073 227.732L80.2396 227.081L108.484 219.192C113.43 221.878 128.183 223.243 140.288 223.926C149.924 224.468 155.294 229.119 155.294 229.119C158.137 249.077 166.331 263.628 175.781 281.511L187.122 279.69L176.408 213.078C176.177 211.639 175.493 210.295 174.441 209.213C173.389 208.13 172.016 207.357 170.492 206.989L93.42 188.376C93.42 188.376 89.1695 187.666 80.205 191.658C65.4468 198.232 56.3048 200.549 56.4528 204.574L56.4528 204.574Z" id="Shape" fill="#2F2E41" stroke="none" />
          <path d="M71.1798 203.503C68.595 208.497 72.4255 227.167 77.2973 231.924L78.5905 232.736L79.0277 232.946C81.9502 242.073 113.312 268.767 113.312 268.767C102.719 281.226 93.2781 296.426 89.0657 313.457L101.315 317.589L135.795 270.066C136.698 268.821 137.172 267.353 137.154 265.855C137.137 264.357 136.628 262.899 135.696 261.673L121.629 243.173L98.7083 202.183C82.33 201.717 73.0629 199.871 71.1798 203.503L71.1798 203.503Z" id="Shape" fill="#2F2E41" stroke="none" />
          <path d="M56.9136 206.748C56.8757 206.748 55.9779 204.579 55.9597 204.574C55.6544 204.495 51.5218 204.118 52.4512 197.802L53.6403 190.85L52.4794 184.711L50.5269 182.909L53.665 180.012L51.7418 166.872L51.0035 140.564C49.1503 131.527 49.6343 123.262 58.6115 119.282L68.9033 110.468L80.6143 110.338L93.9008 117.61L100.338 129.458L102.835 161.568L104.699 165.584L104.54 165.718C104.527 165.728 103.285 166.765 102.727 167.335C102.457 167.689 102.964 170.336 103.59 172.583L104.393 178.129L102.37 179.464L105 182.333L112.172 193.525L111.743 193.427C111.259 193.316 106.748 199.566 57.2451 206.516C57.0166 206.549 57.0086 206.748 56.9136 206.748L56.9136 206.748Z" id="Shape" fill="#D97706" stroke="none" />
          <path d="M113.598 137.255L109.5 135.281C108.857 134.97 108.374 134.437 108.156 133.798C107.939 133.158 108.005 132.466 108.34 131.871L118.151 114.511C118.488 113.918 119.065 113.472 119.758 113.271C120.45 113.07 121.2 113.131 121.844 113.44L125.942 115.414C126.585 115.725 127.068 116.258 127.286 116.897C127.503 117.537 127.437 118.229 127.102 118.824L117.291 136.184C116.954 136.777 116.377 137.223 115.684 137.424C114.992 137.625 114.242 137.564 113.598 137.255L113.598 137.255Z" id="Shape" fill="#3F3D56" stroke="none" />
          <path d="M120.864 114.094C120.517 113.928 120.113 113.895 119.74 114.003C119.367 114.111 119.055 114.352 118.874 114.672L109.062 132.032C108.882 132.352 108.846 132.725 108.964 133.07C109.081 133.414 109.341 133.702 109.688 133.869L113.786 135.843C114.133 136.01 114.537 136.043 114.91 135.935C115.283 135.826 115.594 135.586 115.776 135.266L125.587 117.906C125.768 117.586 125.803 117.212 125.686 116.868C125.569 116.524 125.308 116.236 124.962 116.069L120.864 114.094L120.864 114.094Z" id="Shape" fill="#6C63FF" stroke="none" />
          <path d="M77.3976 107.968C86.6452 107.968 94.1419 101.046 94.1419 92.509C94.1419 83.971 86.6452 77.05 77.3976 77.05C68.1501 77.05 60.6534 83.971 60.6534 92.509C60.6534 101.046 68.1501 107.968 77.3976 107.968L77.3976 107.968Z" id="Shape" fill="#A0616A" stroke="none" />
          <path d="M69.1623 102.466C68.4282 101.927 67.5124 101.643 66.5747 101.663C66.2838 101.707 66.0064 101.808 65.7608 101.959C65.5152 102.109 65.3071 102.306 65.1501 102.537C65.0629 102.638 64.9497 102.717 64.8208 102.768C64.6918 102.819 64.5512 102.839 64.4117 102.827C62.6251 102.887 58.8169 99.827 58.5565 93.922C58.4327 91.116 56.6142 86.368 59.5092 83.796C59.7032 82.758 61.9638 72.032 72.1538 71.736C82.5863 71.43 89.5311 73.365 91.1993 77.035C92.3579 79.95 93.2387 82.952 93.8317 86.008L94.1815 87.825L93.3641 86.141C93.3487 86.109 91.8578 83.094 89.0931 82.088C89.0483 82.579 88.9131 83.059 88.6934 83.508C87.7913 85.313 85.5172 86.491 82.8998 86.509C81.0913 86.457 79.3078 86.103 77.6362 85.464C77.8255 85.716 77.9317 86.013 77.9422 86.32C77.9526 86.627 77.8667 86.93 77.6949 87.192C77.5231 87.455 77.2727 87.666 76.9739 87.8C76.6751 87.935 76.3406 87.986 76.0107 87.949L75.5268 87.893C75.3743 87.876 75.22 87.908 75.0906 87.985C74.9612 88.061 74.8648 88.177 74.8183 88.312C74.7718 88.447 74.778 88.593 74.8358 88.725C74.8937 88.856 74.9996 88.965 75.1351 89.032L75.5612 89.242L75.0441 89.473C72.9624 90.33 71.2472 91.8 70.1666 93.653C69.086 95.506 68.7009 97.638 69.0716 99.714L69.6745 102.845L69.1623 102.466L69.1623 102.466Z" id="Shape" fill="#2F2E41" stroke="none" />
          <path d="M334.271 341.344C333.813 341.364 333.359 341.253 332.972 341.026C332.585 340.8 332.282 340.469 332.105 340.079C331.929 339.688 331.886 339.257 331.983 338.843C332.081 338.43 332.314 338.054 332.65 337.767L332.804 337.204C332.783 337.159 332.763 337.114 332.743 337.069C332.281 336.063 331.508 335.206 330.521 334.604C329.533 334.002 328.375 333.684 327.192 333.688C326.009 333.692 324.853 334.018 323.87 334.627C322.888 335.235 322.121 336.098 321.668 337.107C319.857 341.135 317.551 345.169 316.983 349.428C316.733 351.31 316.839 353.218 317.295 355.067C313.041 346.5 310.832 337.188 310.817 327.763C310.816 325.397 310.959 323.034 311.244 320.684C311.479 318.757 311.806 316.844 312.224 314.944C314.504 304.638 319.399 294.978 326.508 286.758C329.949 285.025 332.732 282.36 334.481 279.121C335.115 277.957 335.563 276.715 335.811 275.432C335.423 275.479 335.028 275.508 334.64 275.532C334.519 275.538 334.392 275.544 334.271 275.55L334.226 275.551C333.799 275.569 333.376 275.473 333.007 275.273C332.639 275.074 332.341 274.781 332.148 274.429C331.956 274.077 331.878 273.681 331.924 273.289C331.97 272.897 332.137 272.526 332.406 272.22C332.574 272.029 332.742 271.839 332.91 271.649C333.164 271.355 333.425 271.067 333.679 270.773C333.709 270.746 333.736 270.716 333.762 270.685C334.055 270.35 334.348 270.022 334.64 269.687C334.106 268.921 333.387 268.28 332.54 267.813C329.607 266.227 325.56 267.325 323.441 269.775C321.316 272.224 320.915 275.661 321.653 278.722C322.379 281.326 323.58 283.797 325.204 286.03C325.045 286.218 324.88 286.4 324.72 286.588C321.813 290.04 319.278 293.747 317.153 297.656C317.67 293.277 317.053 288.847 315.354 284.731C313.632 280.896 310.404 277.665 307.561 274.349C304.147 270.366 297.145 272.104 296.543 277.153C296.538 277.202 296.532 277.251 296.526 277.3C296.949 277.52 297.362 277.753 297.766 278C298.274 278.314 298.668 278.761 298.896 279.285C299.123 279.808 299.174 280.383 299.042 280.934C298.91 281.485 298.601 281.986 298.155 282.371C297.709 282.757 297.147 283.009 296.544 283.095L296.482 283.104C296.632 284.509 296.898 285.901 297.277 287.269C298.375 291.088 300.316 294.655 302.978 297.748C305.64 300.842 308.965 303.394 312.745 305.245C312.994 305.363 313.235 305.48 313.484 305.592C311.349 311.177 310.01 316.995 309.5 322.898C309.212 326.381 309.229 329.88 309.551 333.361L309.532 333.238C308.718 329.367 306.481 325.875 303.201 323.351C298.329 319.656 291.445 318.295 286.189 315.325C285.631 314.994 284.981 314.817 284.317 314.815C283.653 314.814 283.003 314.988 282.443 315.316C281.882 315.645 281.435 316.115 281.155 316.67C280.874 317.225 280.771 317.843 280.858 318.451C280.865 318.494 280.873 318.537 280.88 318.581C281.663 318.875 282.426 319.215 283.164 319.597C283.586 319.817 284 320.05 284.404 320.297C284.912 320.61 285.306 321.058 285.533 321.582C285.761 322.105 285.812 322.68 285.68 323.231C285.548 323.781 285.239 324.282 284.793 324.668C284.347 325.054 283.785 325.306 283.181 325.392L283.12 325.401C283.075 325.407 283.037 325.413 282.992 325.419C284.331 328.37 286.21 331.086 288.547 333.449C291.434 336.309 294.923 338.595 298.801 340.165C302.679 341.736 306.863 342.559 311.097 342.584L311.104 342.584C312.253 347.196 313.919 351.684 316.073 355.978L333.826 355.978C333.889 355.796 333.947 355.608 334.004 355.426C332.361 355.521 330.711 355.43 329.092 355.156C330.409 353.663 331.726 352.16 333.043 350.667C333.073 350.64 333.1 350.61 333.126 350.579C333.794 349.816 334.468 349.058 335.137 348.294L335.137 348.293C335.173 345.952 334.881 343.616 334.271 341.344L334.271 341.344Z" id="Shape" fill="#E6E6E6" stroke="none" />
          <path d="M419.605 87.197C419.948 87.478 420.188 87.849 420.295 88.261C420.401 88.673 420.367 89.105 420.199 89.498C420.03 89.892 419.735 90.228 419.352 90.461C418.97 90.695 418.519 90.814 418.061 90.803L417.526 91.107C417.507 91.152 417.487 91.197 417.468 91.243C417.037 92.26 416.943 93.373 417.195 94.44C417.447 95.507 418.036 96.482 418.886 97.241C419.737 98.001 420.811 98.512 421.975 98.709C423.139 98.907 424.34 98.782 425.427 98.352C429.769 96.635 434.47 95.231 438.096 92.548C439.699 91.361 441.066 89.926 442.137 88.308C438.706 97.185 433.248 105.277 426.133 112.036C424.346 113.73 422.457 115.331 420.476 116.831C418.851 118.059 417.171 119.218 415.436 120.309C406.011 126.221 395.203 129.984 383.898 131.289C380.123 130.314 376.115 130.429 372.415 131.621C371.081 132.046 369.82 132.647 368.673 133.406C368.987 133.622 369.291 133.856 369.587 134.089C369.678 134.163 369.774 134.24 369.865 134.314L369.899 134.342C370.218 134.604 370.448 134.946 370.561 135.326C370.674 135.706 370.666 136.108 370.538 136.484C370.409 136.86 370.166 137.194 369.837 137.445C369.508 137.696 369.107 137.854 368.683 137.9C368.419 137.929 368.155 137.957 367.891 137.985C367.487 138.031 367.082 138.069 366.678 138.116C366.636 138.117 366.594 138.12 366.552 138.126C366.089 138.177 365.631 138.224 365.168 138.275C364.972 139.167 365.002 140.09 365.255 140.97C366.157 143.996 369.885 145.817 373.255 145.428C376.629 145.043 379.514 142.841 381.299 140.173C382.748 137.84 383.756 135.297 384.281 132.652C384.537 132.62 384.793 132.596 385.049 132.564C389.741 131.965 394.359 130.944 398.835 129.514C395.155 132.317 392.248 135.886 390.353 139.929C388.687 143.785 388.556 148.179 388.085 152.385C387.519 157.438 393.848 160.705 398.096 157.477C398.137 157.446 398.178 157.414 398.219 157.383C398.082 156.953 397.963 156.52 397.86 156.082C397.733 155.531 397.79 154.956 398.022 154.435C398.255 153.913 398.653 153.469 399.164 153.159C399.675 152.85 400.275 152.691 400.886 152.702C401.497 152.713 402.09 152.894 402.587 153.222L402.638 153.255C403.593 152.152 404.455 150.984 405.217 149.76C407.317 146.318 408.625 142.512 409.057 138.582C409.489 134.651 409.038 130.681 407.73 126.919C407.641 126.675 407.557 126.435 407.463 126.195C413.214 123.571 418.571 120.268 423.399 116.368C426.239 114.06 428.872 111.543 431.272 108.843L431.193 108.943C428.85 112.24 427.812 116.182 428.252 120.103C428.948 125.889 432.849 131.299 434.367 136.813C434.517 137.41 434.849 137.956 435.323 138.384C435.797 138.813 436.394 139.108 437.044 139.234C437.694 139.359 438.369 139.311 438.99 139.094C439.611 138.877 440.152 138.501 440.548 138.01C440.576 137.974 440.604 137.939 440.631 137.903C440.293 137.187 440.003 136.452 439.763 135.703C439.627 135.274 439.508 134.84 439.405 134.403C439.278 133.851 439.335 133.277 439.567 132.755C439.8 132.234 440.198 131.789 440.709 131.48C441.22 131.17 441.82 131.011 442.431 131.022C443.042 131.033 443.635 131.214 444.132 131.542L444.183 131.576C444.22 131.6 444.251 131.62 444.288 131.645C445.56 128.669 446.268 125.512 446.381 122.314C446.475 118.406 445.704 114.521 444.115 110.897C442.526 107.274 440.151 103.988 437.138 101.241L437.133 101.237C439.796 97.194 441.997 92.906 443.7 88.443L430.987 77.004C430.803 77.093 430.62 77.191 430.442 77.284C431.69 78.275 432.803 79.403 433.755 80.643C431.684 80.863 429.604 81.091 427.532 81.311C427.49 81.312 427.448 81.315 427.407 81.321C426.351 81.437 425.295 81.545 424.239 81.662L424.238 81.662C422.443 83.315 420.886 85.176 419.605 87.197L419.605 87.197Z" id="Shape" fill="#E6E6E6" stroke="none" />
          <path d="M113.55 133.074L97.5412 149.866L106.632 157.953C106.632 157.953 119.817 137.977 120.256 137.205C121.467 137.045 122.598 136.55 123.498 135.784C124.398 135.019 125.025 134.019 125.296 132.917C125.567 131.815 125.469 130.663 125.016 129.614C124.563 128.564 123.775 127.666 122.757 127.039C121.739 126.412 120.538 126.085 119.315 126.102C118.091 126.118 116.901 126.477 115.903 127.131C114.906 127.785 114.146 128.704 113.726 129.765C113.306 130.826 113.244 131.98 113.55 133.074L113.55 133.074Z" id="Shape" fill="#A0616A" stroke="none" />
          <path d="M57.6303 122.886C57.96 140.413 72.3691 154.841 83.2885 170.663C84.8966 171.643 86.7086 172.303 88.6087 172.601C90.5088 172.898 92.4552 172.826 94.3234 172.389C96.1916 171.952 97.9406 171.161 99.4584 170.064C100.976 168.968 102.23 167.591 103.138 166.022L112.714 149.701L100.528 146.551L94.063 150.467L80.5769 135.846L57.6303 122.886L57.6303 122.886Z" id="Shape" fill="#D97706" stroke="none" />
        </g>
      </g>
    </g>
  </g>
</svg>