<?xml version="1.0" encoding="utf-8"?>
<svg width="848px" height="689px" viewBox="0 0 848 689" version="1.1" xmlns:xlink="http://www.w3.org/1999/xlink" xmlns="http://www.w3.org/2000/svg">
  <defs>
    <path d="M0 0L848 0L848 689L0 689L0 0Z" id="path_1" />
    <path d="M0 0L848 0L848 675L0 675L0 0Z" id="path_2" />
    <clipPath id="mask_1">
      <use xlink:href="#path_1" />
    </clipPath>
    <clipPath id="mask_2">
      <use xlink:href="#path_2" />
    </clipPath>
  </defs>
  <g id="svg-4">
    <path d="M0 0L848 0L848 689L0 689L0 0Z" id="Background" fill="#FFFFFF" fill-opacity="0" fill-rule="evenodd" stroke="none" />
    <g id="Mask-Group" transform="translate(0 13.5141)">
      <path d="M0 0L848 0L848 675L0 675L0 0Z" id="Rectangle" fill="none" fill-rule="evenodd" stroke="none" />
      <g clip-path="url(#mask_2)">
        <g id="Group">
          <path d="M622.164 0.3901L0.265255 0.3901L0.265255 441.754L622.164 441.754L622.164 0.3901L622.164 0.3901Z" id="Shape" fill="#E6E6E6" stroke="none" />
          <path d="M604.381 55.7479L18.0485 55.7479L18.0485 415.642L604.381 415.642L604.381 55.7479L604.381 55.7479Z" id="Shape" fill="#FFFFFF" stroke="none" />
          <path d="M621.899 0L0 0L0 29.2774L621.899 29.2774L621.899 0L621.899 0Z" id="Shape" fill="#D97706" stroke="none" />
          <path d="M19.6343 20.3959C22.339 20.3959 24.5316 17.9662 24.5316 14.969C24.5316 11.9719 22.339 9.5422 19.6343 9.5422C16.9297 9.5422 14.7371 11.9719 14.7371 14.969C14.7371 17.9662 16.9297 20.3959 19.6343 20.3959L19.6343 20.3959Z" id="Shape" fill="#FFFFFF" stroke="none" />
          <path d="M38.2211 20.3959C40.9258 20.3959 43.1184 17.9662 43.1184 14.969C43.1184 11.9719 40.9258 9.5422 38.2211 9.5422C35.5165 9.5422 33.3239 11.9719 33.3239 14.969C33.3239 17.9662 35.5165 20.3959 38.2211 20.3959L38.2211 20.3959Z" id="Shape" fill="#FFFFFF" stroke="none" />
          <path d="M56.8079 20.3959C59.5126 20.3959 61.7052 17.9662 61.7052 14.969C61.7052 11.9719 59.5126 9.5422 56.8079 9.5422C54.1032 9.5422 51.9107 11.9719 51.9107 14.969C51.9107 17.9662 54.1032 20.3959 56.8079 20.3959L56.8079 20.3959Z" id="Shape" fill="#FFFFFF" stroke="none" />
          <path d="M204.868 85.3503L90.1897 85.3503L90.1897 223.22L204.868 223.22L204.868 85.3503L204.868 85.3503Z" id="Shape" fill="#E6E6E6" stroke="none" />
          <path d="M368.553 85.3503L253.875 85.3503L253.875 223.22L368.553 223.22L368.553 85.3503L368.553 85.3503Z" id="Shape" fill="#E6E6E6" stroke="none" />
          <path d="M532.237 85.3503L417.559 85.3503L417.559 223.22L532.237 223.22L532.237 85.3503L532.237 85.3503Z" id="Shape" fill="#E6E6E6" stroke="none" />
          <path d="M204.868 248.175L90.1897 248.175L90.1897 386.045L204.868 386.045L204.868 248.175L204.868 248.175Z" id="Shape" fill="#E6E6E6" stroke="none" />
          <path d="M368.553 248.175L253.875 248.175L253.875 386.045L368.553 386.045L368.553 248.175L368.553 248.175Z" id="Shape" fill="#E6E6E6" stroke="none" />
          <path d="M532.237 248.175L417.559 248.175L417.559 386.045L532.237 386.045L532.237 248.175L532.237 248.175Z" id="Shape" fill="#E6E6E6" stroke="none" />
          <path d="M281.592 283.609L302.545 274.429L304.982 320.327C304.982 320.327 309.367 334.366 307.906 339.766C307.906 339.766 308.88 348.946 306.443 349.485C304.007 350.025 297.183 351.106 296.701 350.565C296.219 350.024 296.214 348.405 296.214 348.405C296.214 348.405 291.341 352.184 290.854 356.504C290.854 356.504 270.388 363.523 269.901 357.044C269.413 350.564 280.133 345.164 280.133 345.164L288.417 331.125L281.592 283.609L281.592 283.609Z" id="Shape" fill="#FFFFFF" stroke="none" />
          <path d="M325.937 283.609L346.887 274.429L349.323 320.327C349.323 320.327 353.708 334.366 352.247 339.766C352.247 339.766 353.221 348.946 350.785 349.485C348.348 350.025 341.525 351.106 341.042 350.565C340.56 350.024 340.555 348.405 340.555 348.405C340.555 348.405 335.682 352.184 335.195 356.504C335.195 356.504 314.729 363.523 314.242 357.044C313.755 350.564 324.474 345.164 324.474 345.164L332.758 331.125L325.937 283.609L325.937 283.609Z" id="Shape" fill="#FFFFFF" stroke="none" />
          <path d="M327.984 106.367C327.984 106.367 323.522 120.182 328.692 126.411L324.382 142.822C324.382 142.822 339.694 193.726 335.319 200.836C335.319 200.836 318.987 209.886 286.318 197.604L299.588 140.56L297.692 116.481L300.317 105.169L306.15 104.528C306.15 104.528 302.651 119.071 309.067 121.334C315.484 123.597 321.743 104.891 321.743 104.891L327.984 106.367L327.984 106.367Z" id="Shape" fill="#3F3D56" stroke="none" />
          <path d="M121.945 195.543L127.575 198.096L154.447 158.96L162.892 204.902L168.523 203.767C172.134 164.159 175.082 123.76 171.466 104.652L150.608 103.659L141.14 137.127L136.533 159.815L121.945 195.543L121.945 195.543Z" id="Shape" fill="#FFFFFF" stroke="none" />
          <path d="M463.66 104.339C463.66 104.339 455.976 116.176 456.351 120.953C456.726 125.73 461.598 203.608 461.598 203.608L473.031 204.231L469.655 148.159L472.466 132.998L479.4 203.608L493.456 204.024L480.9 112.439L478.463 104.34L463.66 104.339L463.66 104.339Z" id="Shape" fill="#FFFFFF" stroke="none" />
          <path d="M507.088 295.038C505.048 292.326 501.54 290.859 498.173 290.066C498.27 289.727 487.931 287.359 487.755 287.847L483.858 284.406L471.88 291.297L465.15 286.22L462.024 287.449C462.151 286.838 452.319 288.725 452.319 288.725C450.441 288.8 448.042 288.931 445.357 289.159C435.953 289.961 435.228 316.951 435.228 316.951C439.555 314.99 444.168 313.919 448.842 313.792L451.383 346.074C464.457 344.831 478.167 346.277 492.379 349.815L499.043 324.439L514.562 317.751C514.562 317.751 511.911 301.451 507.088 295.038L507.088 295.038Z" id="Shape" fill="#3F3D56" stroke="none" />
          <path d="M174.053 279.666C172.371 277.431 169.482 276.222 166.707 275.569C166.79 275.289 158.268 273.34 158.122 273.741L154.91 270.907L145.043 276.585L139.498 272.402L136.922 273.415C137.028 272.912 128.926 274.466 128.926 274.466C127.383 274.528 125.401 274.635 123.189 274.824C115.441 275.485 114.845 297.721 114.845 297.721C118.41 296.105 122.211 295.223 126.062 295.119L128.156 360.23C138.928 359.206 150.225 360.398 161.931 363.313L167.422 303.892L180.21 298.382C180.21 298.382 178.026 284.952 174.053 279.666L174.053 279.666Z" id="Shape" fill="#FFFFFF" stroke="none" />
          <path d="M722.916 296.998L777.898 296.998L777.898 264.396C777.898 256.316 775.002 248.568 769.846 242.855C764.691 237.142 757.698 233.932 750.407 233.932C743.116 233.932 736.124 237.142 730.968 242.855C725.812 248.568 722.916 256.316 722.916 264.396L722.916 296.998L722.916 296.998Z" id="Shape" fill="#2F2E41" stroke="none" />
          <path d="M698.372 659.726L686.547 659.726L680.92 609.175L698.374 609.175L698.372 659.726L698.372 659.726Z" id="Shape" fill="#FFB6B6" stroke="none" />
          <path d="M701.388 655.447L678.098 655.447C674.162 655.447 670.388 657.18 667.604 660.264C664.821 663.348 663.257 667.531 663.257 671.892L663.257 672.427L701.388 672.427L701.388 655.447L701.388 655.447Z" id="Shape" fill="#2F2E41" stroke="none" />
          <path d="M839.737 642.238L829.439 648.68L802.114 607.729L817.313 598.221L839.737 642.238L839.737 642.238Z" id="Shape" fill="#FFB6B6" stroke="none" />
          <path d="M840.466 636.868L820.185 649.552C816.757 651.697 814.239 655.262 813.184 659.464C812.128 663.667 812.622 668.161 814.558 671.96L814.795 672.425L848 651.652L840.466 636.868L840.466 636.868Z" id="Shape" fill="#2F2E41" stroke="none" />
          <path d="M764.157 432.4L765.07 437.456C765.07 437.456 767.807 440.489 766.439 442.006C765.07 443.523 765.526 450.602 765.526 450.602C766.292 463.51 781.512 536.046 784.234 550.213C784.234 550.213 805.224 565.382 821.65 595.214C838.076 625.046 838.531 632.631 838.531 632.631L820.282 641.228L774.657 580.046C774.657 580.046 761.881 571.45 757.317 563.866C752.754 556.282 724.459 477.906 724.459 477.906L708.486 559.82C708.486 559.82 709.398 589.652 705.292 608.867C702.767 620.993 701.24 633.347 700.729 645.779L679.284 643.251C679.284 643.251 680.652 571.45 682.934 563.865C682.934 563.865 673.351 476.39 692.516 441.5L707.961 395.872L723.088 389.42L764.157 432.4L764.157 432.4Z" id="Shape" fill="#2F2E41" stroke="none" />
          <path d="M750.691 241.902C721.9 242.447 721.905 289.903 750.691 290.443C779.479 289.898 779.475 242.442 750.691 241.902L750.691 241.902Z" id="Shape" fill="#FFB8B8" stroke="none" />
          <path d="M728.533 264.913L733.426 264.913L734.758 261.221L734.092 264.913L760.855 264.913L759.987 257.188L766.492 264.913L772.981 264.913L772.981 260.727C772.983 257.494 772.41 254.291 771.295 251.302C770.18 248.314 768.545 245.598 766.483 243.309C764.421 241.021 761.972 239.205 759.277 237.966C756.581 236.726 753.692 236.087 750.774 236.085C747.856 236.082 744.966 236.717 742.269 237.952C739.572 239.188 737.121 241 735.056 243.285C732.991 245.57 731.352 248.283 730.233 251.27C729.115 254.257 728.538 257.459 728.536 260.693L728.536 260.727L728.533 264.913L728.533 264.913Z" id="Shape" fill="#2F2E41" stroke="none" />
          <path d="M721.002 304.615L775.406 305.103L763.911 434.353C763.911 434.353 700.288 430.632 700.248 409.111L706.208 389.988L721.002 304.615L721.002 304.615Z" id="Shape" fill="#3F3D56" stroke="none" />
          <path d="M777.744 446.847C776.907 445.712 776.306 444.388 775.981 442.967C775.657 441.547 775.618 440.065 775.866 438.626C776.114 437.187 776.644 435.825 777.419 434.638C778.193 433.45 779.193 432.465 780.348 431.752L777.984 408.998L790.112 404.033L793.043 436.219C793.989 438.448 794.166 440.984 793.54 443.348C792.914 445.711 791.528 447.739 789.644 449.048C787.761 450.356 785.51 450.855 783.317 450.449C781.125 450.044 779.142 448.762 777.744 446.847L777.744 446.847Z" id="Shape" fill="#FFB6B6" stroke="none" />
          <path d="M768.252 316.238L775.41 305.15C775.41 305.15 780.31 303.946 786.097 311.428C791.885 318.91 795.261 412.44 795.261 412.44L774.04 417.784L761.5 351.512L768.252 316.238L768.252 316.238Z" id="Shape" fill="#3F3D56" stroke="none" />
          <path d="M648.338 417.665L649.917 500.759L698.46 529.186L786.863 511.693L789.034 425.318L732.992 403.45L648.338 417.665L648.338 417.665Z" id="Shape" fill="#FFFFFF" stroke="none" />
          <path d="M698.333 530.083L649.151 501.282L647.549 416.928L733.068 402.569L733.25 402.64L789.825 424.716L787.621 512.415L698.333 530.083L698.333 530.083ZM650.682 500.235L698.586 528.288L786.106 510.969L788.243 425.92L732.917 404.332L649.127 418.401L650.682 500.235L650.682 500.235Z" id="Shape" fill="#CACACA" fill-rule="evenodd" stroke="none" />
          <path d="M697.377 440.194L697.186 440.111L648.052 418.462L648.624 416.866L697.569 438.431L788.928 424.467L789.14 426.169L697.377 440.194L697.377 440.194Z" id="Shape" fill="#CACACA" stroke="none" />
          <path d="M698.248 439.302L696.698 439.323L697.685 529.196L699.235 529.175L698.248 439.302L698.248 439.302Z" id="Shape" fill="#CACACA" stroke="none" />
          <path d="M691.167 435.893L673.456 427.936L758.721 412.88L776.433 420.836L691.167 435.893L691.167 435.893Z" id="Shape" fill="#CACACA" stroke="none" />
          <path d="M648.644 441.769L648.031 443.347L668.574 453.148L669.187 451.57L648.644 441.769L648.644 441.769Z" id="Shape" fill="#CACACA" stroke="none" />
          <path d="M657.947 470.117L657.334 471.695L677.876 481.496L678.489 479.918L657.947 470.117L657.947 470.117Z" id="Shape" fill="#D97706" stroke="none" />
          <path d="M378.252 533.107L379.83 616.201L428.373 644.629L516.776 627.135L518.948 540.76L462.905 518.893L378.252 533.107L378.252 533.107Z" id="Shape" fill="#FFFFFF" stroke="none" />
          <path d="M428.246 645.526L379.064 616.724L377.462 532.37L462.981 518.012L463.163 518.083L519.738 540.158L517.534 627.857L428.246 645.526L428.246 645.526ZM380.595 615.677L428.499 643.73L516.019 626.412L518.157 541.362L462.831 519.774L379.041 533.843L380.595 615.677L380.595 615.677Z" id="Shape" fill="#CACACA" fill-rule="evenodd" stroke="none" />
          <path d="M427.29 555.636L427.1 555.553L377.965 533.904L378.537 532.309L427.483 553.873L518.841 539.91L519.054 541.611L427.29 555.636L427.29 555.636Z" id="Shape" fill="#CACACA" stroke="none" />
          <path d="M428.162 554.744L426.611 554.765L427.598 644.639L429.148 644.618L428.162 554.744L428.162 554.744Z" id="Shape" fill="#CACACA" stroke="none" />
          <path d="M416.79 549.379L403.369 543.378L488.634 528.323L502.055 534.324L416.79 549.379L416.79 549.379Z" id="Shape" fill="#CACACA" stroke="none" />
          <path d="M378.558 557.211L377.945 558.789L398.487 568.591L399.1 567.013L378.558 557.211L378.558 557.211Z" id="Shape" fill="#CACACA" stroke="none" />
          <path d="M387.86 585.559L387.247 587.137L407.789 596.938L408.402 595.36L387.86 585.559L387.86 585.559Z" id="Shape" fill="#D97706" stroke="none" />
          <path d="M462.584 544.5L464.417 640.959L520.768 673.958L623.39 653.651L625.91 553.384L560.854 528L462.584 544.5L462.584 544.5Z" id="Shape" fill="#D97706" stroke="none" />
          <path d="M520.621 675L463.528 641.566L461.668 543.645L560.942 526.977L561.153 527.059L626.827 552.685L624.269 654.49L520.621 675L520.621 675ZM465.305 640.351L520.914 672.916L622.511 652.812L624.992 554.083L560.767 529.023L463.5 545.354L465.305 640.351L465.305 640.351Z" id="Shape" fill="#3F3D56" fill-rule="evenodd" stroke="none" />
          <path d="M519.51 570.653L519.29 570.556L462.251 545.426L462.916 543.573L519.734 568.605L625.786 552.396L626.032 554.372L519.51 570.653L519.51 570.653Z" id="Shape" fill="#3F3D56" stroke="none" />
          <path d="M520.522 569.618L518.722 569.642L519.867 673.97L521.667 673.946L520.522 569.618L520.522 569.618Z" id="Shape" fill="#3F3D56" stroke="none" />
          <path d="M508.234 563.435L491.741 556.424L590.72 538.946L607.214 545.957L508.234 563.435L508.234 563.435Z" id="Shape" fill="#3F3D56" stroke="none" />
          <path d="M462.94 572.481L462.228 574.313L486.075 585.691L486.786 583.859L462.94 572.481L462.94 572.481Z" id="Shape" fill="#3F3D56" stroke="none" />
          <path d="M473.738 605.388L473.027 607.22L496.873 618.598L497.585 616.766L473.738 605.388L473.738 605.388Z" id="Shape" fill="#FFFFFF" stroke="none" />
          <path d="M675.861 431.405C677.058 430.782 678.117 429.876 678.964 428.751C679.811 427.626 680.425 426.309 680.762 424.892C681.1 423.476 681.154 421.994 680.919 420.552C680.684 419.111 680.167 417.743 679.404 416.547L690.422 397.167L681.428 386.876L666.215 414.485C664.487 416.039 663.333 418.242 662.972 420.676C662.612 423.11 663.069 425.606 664.258 427.692C665.446 429.777 667.284 431.307 669.423 431.991C671.561 432.676 673.852 432.467 675.861 431.406L675.861 431.405L675.861 431.405Z" id="Shape" fill="#FFB6B6" stroke="none" />
          <path d="M729.362 309.709L721.469 303.946C721.469 303.946 715.378 305.459 708.9 319.267C702.421 333.076 676.296 394.809 676.296 394.809L687.035 406.888L715.684 358.457L729.362 309.709L729.362 309.709Z" id="Shape" fill="#3F3D56" stroke="none" />
        </g>
      </g>
    </g>
  </g>
</svg>