<?xml version="1.0" encoding="utf-8"?>
<svg width="736px" height="690px" viewBox="0 0 736 690" version="1.1" xmlns:xlink="http://www.w3.org/1999/xlink" xmlns="http://www.w3.org/2000/svg">
  <defs>
    <path d="M0 0L736 0L736 690L0 690L0 0Z" id="path_1" />
    <clipPath id="mask_1">
      <use xlink:href="#path_1" />
    </clipPath>
  </defs>
  <g id="svg-3">
    <g id="Mask-Group">
      <path d="M0 0L736 0L736 690L0 690L0 0Z" id="Rectangle" fill="none" fill-rule="evenodd" stroke="none" />
      <g clip-path="url(#mask_1)">
        <g id="Group" transform="translate(0 -0.002929926)">
          <path d="M706.844 0.00434446L485.913 0.00434446C475.252 0.00373818 464.907 4.2151 456.58 11.9461C448.254 19.6772 442.44 30.4678 440.095 42.5441L328.465 617.491C327.247 623.762 327.226 630.266 328.402 636.548C329.578 642.83 331.924 648.737 335.274 653.855C338.624 658.973 342.898 663.178 347.796 666.175C352.693 669.173 358.097 670.89 363.626 671.206L590.746 684.199C602.907 684.895 614.871 680.429 624.405 671.634C633.939 662.84 640.392 650.318 642.559 636.405L705.887 229.913L710.598 231.476L722.718 154.43L717.869 153.023L735.546 39.5557C736.303 34.6955 736.128 29.7011 735.032 24.9286C733.937 20.1562 731.948 15.7231 729.207 11.9455C726.467 8.16792 723.043 5.13884 719.179 3.07423C715.314 1.00961 711.105 -0.0396833 706.852 0.00114774L706.844 0.00434446L706.844 0.00434446Z" id="Shape" fill="#D97706" stroke="none" />
          <path d="M514.995 12.3984L489.208 12.3984C481.802 12.3985 474.619 15.3396 468.851 20.7335C463.082 26.1274 459.076 33.6496 457.498 42.0515L350.345 612.307C349.727 615.59 349.728 618.989 350.346 622.273C350.964 625.556 352.185 628.645 353.926 631.33C355.667 634.015 357.886 636.232 360.432 637.829C362.979 639.426 365.792 640.367 368.68 640.586L595.061 657.815C601.448 658.301 607.765 656.04 612.807 651.462C617.85 646.885 621.264 640.312 622.398 632.998L713.832 43.5836C714.424 39.7687 714.287 35.8495 713.432 32.1026C712.577 28.3556 711.024 24.8723 708.883 21.8983C706.742 18.9243 704.065 16.5322 701.041 14.8907C698.016 13.2493 694.719 12.3985 691.38 12.3984L666.917 12.3984C664.549 12.3983 662.247 13.3046 660.368 14.977C658.488 16.6494 657.136 18.9946 656.52 21.6495C655.977 23.9941 654.782 26.0651 653.122 27.5418C651.463 29.0184 649.43 29.8182 647.338 29.8173L531.198 29.8173C527.104 29.8172 523.161 28.0232 520.158 24.7938C517.154 21.5645 515.31 17.1378 514.995 12.3984L514.995 12.3984Z" id="Shape" fill="#FFFFFF" stroke="none" />
          <path d="M640.139 411.055C640.579 411.073 641.01 410.906 641.353 410.585C641.696 410.265 641.929 409.812 642.008 409.309L692.071 88.4828C692.119 88.1779 692.109 87.8646 692.043 87.5643C691.977 87.264 691.856 86.9839 691.688 86.7429C691.522 86.5038 691.312 86.3102 691.074 86.1759C690.836 86.0415 690.575 85.9697 690.311 85.9656L462.545 82.8418L462.524 82.8418C462.11 82.8458 461.71 83.0128 461.389 83.3154C461.068 83.6179 460.845 84.0381 460.756 84.5071L401.739 394.92C401.681 395.223 401.68 395.537 401.737 395.84C401.793 396.143 401.905 396.429 402.065 396.677C402.224 396.923 402.428 397.126 402.661 397.271C402.895 397.415 403.153 397.498 403.418 397.514L640.139 411.055L640.139 411.055Z" id="Shape" fill="#E6E6E6" stroke="none" />
          <path d="M442.484 431.798C442.277 431.799 442.076 431.88 441.914 432.03C441.752 432.179 441.638 432.388 441.591 432.623L439.458 443.237C439.428 443.387 439.426 443.543 439.452 443.694C439.479 443.845 439.533 443.987 439.612 444.111C439.691 444.235 439.791 444.338 439.907 444.413C440.023 444.487 440.152 444.532 440.284 444.543L560.779 454.487C561.002 454.504 561.223 454.426 561.401 454.268C561.579 454.109 561.701 453.882 561.746 453.627L563.797 441.346C563.822 441.197 563.819 441.043 563.788 440.896C563.758 440.748 563.701 440.61 563.621 440.49C563.54 440.37 563.439 440.271 563.324 440.201C563.208 440.13 563.081 440.088 562.95 440.079L442.54 431.801L442.484 431.798L442.484 431.798Z" id="Shape" fill="#E6E6E6" stroke="none" />
          <path d="M588.878 493.915C589.095 493.935 589.312 493.865 589.489 493.717C589.665 493.569 589.791 493.353 589.843 493.107L592.454 480.8C592.486 480.649 592.49 480.492 592.464 480.34C592.438 480.187 592.384 480.043 592.305 479.917C592.227 479.792 592.125 479.688 592.008 479.612C591.891 479.537 591.762 479.492 591.628 479.481L437.749 466.985C437.54 466.966 437.332 467.031 437.16 467.169C436.988 467.308 436.862 467.511 436.804 467.745L434.091 478.38C434.052 478.532 434.043 478.692 434.065 478.849C434.086 479.005 434.137 479.154 434.214 479.285C434.292 479.416 434.393 479.525 434.511 479.604C434.629 479.684 434.761 479.732 434.897 479.745L588.878 493.915L588.878 493.915Z" id="Shape" fill="#E6E6E6" stroke="none" />
          <path d="M580.614 533.363C580.832 533.383 581.048 533.313 581.225 533.165C581.402 533.017 581.527 532.8 581.579 532.555L584.191 520.248C584.223 520.097 584.226 519.94 584.2 519.787C584.175 519.635 584.12 519.491 584.042 519.365C583.963 519.24 583.862 519.136 583.745 519.06C583.628 518.985 583.498 518.94 583.364 518.929L429.485 506.433C429.277 506.413 429.068 506.478 428.896 506.617C428.724 506.756 428.598 506.959 428.541 507.193L425.827 517.828C425.789 517.98 425.78 518.14 425.801 518.296C425.822 518.453 425.874 518.602 425.951 518.733C426.028 518.864 426.129 518.973 426.247 519.052C426.366 519.132 426.497 519.18 426.633 519.192L580.614 533.363L580.614 533.363Z" id="Shape" fill="#E6E6E6" stroke="none" />
          <path d="M313.818 672.239C313.818 681.162 243.48 682.112 156.909 688.394C70.4153 694.671 0 681.162 0 672.239C0 663.316 70.744 645.364 156.909 656.083C243.48 666.854 313.818 663.316 313.818 672.239L313.818 672.239Z" id="Shape" fill="#E6E6E6" stroke="none" />
          <path d="M509.744 600.8C509.963 600.826 510.183 600.759 510.362 600.611C510.542 600.463 510.669 600.245 510.721 599.996L516.242 574.354C516.274 574.204 516.278 574.047 516.253 573.896C516.229 573.744 516.176 573.6 516.098 573.474C516.021 573.348 515.921 573.244 515.805 573.167C515.689 573.091 515.561 573.045 515.428 573.032L420.931 563.803C420.711 563.785 420.492 563.859 420.314 564.011C420.136 564.163 420.01 564.384 419.958 564.634L415.249 589.244C415.221 589.391 415.22 589.544 415.246 589.693C415.273 589.841 415.326 589.981 415.403 590.103C415.479 590.225 415.578 590.327 415.691 590.402C415.804 590.477 415.93 590.523 416.06 590.537L509.744 600.8L509.744 600.8Z" id="Shape" fill="#FF6501" stroke="none" />
          <path d="M128.188 496.309C129.378 495.362 130.374 494.124 131.107 492.681C131.841 491.239 132.292 489.627 132.431 487.96C132.569 486.293 132.391 484.611 131.909 483.032C131.427 481.454 130.653 480.017 129.64 478.824L133.467 379.651L113.987 382.19L115.119 479.195C113.504 481.3 112.61 484.021 112.607 486.841C112.605 489.661 113.494 492.384 115.105 494.494C116.717 496.604 118.939 497.954 121.351 498.287C123.762 498.621 126.195 497.915 128.189 496.304L128.188 496.309L128.188 496.309Z" id="Shape" fill="#A0616A" stroke="none" />
          <path d="M163.725 664.185L174.812 666.448L185.77 617.87L171.243 614.529L163.725 664.185L163.725 664.185Z" id="Shape" fill="#A0616A" stroke="none" />
          <path d="M194.387 682.766L159.543 675.653L161.909 660.022L183.291 664.387C186.862 665.116 190.036 667.462 192.117 670.909C194.198 674.356 195.015 678.621 194.387 682.767L194.387 682.766L194.387 682.766Z" id="Shape" fill="#2F2E41" stroke="none" />
          <path d="M133.294 670.629L144.551 670.629L149.906 620.212L133.292 620.212L133.294 670.629L133.294 670.629Z" id="Shape" fill="#A0616A" stroke="none" />
          <path d="M166.257 682.768L130.878 682.77L130.877 666.898L152.587 666.897C156.212 666.896 159.689 668.568 162.253 671.545C164.816 674.521 166.257 678.558 166.257 682.768L166.257 682.768Z" id="Shape" fill="#2F2E41" stroke="none" />
          <path d="M180.259 652.557C180.083 652.558 179.908 652.546 179.733 652.521L166.484 651.256C165.881 651.173 165.298 650.949 164.772 650.598C164.245 650.246 163.786 649.773 163.422 649.209C163.057 648.645 162.795 648 162.652 647.315C162.509 646.63 162.487 645.918 162.588 645.222L175.741 569.865L167.477 519.25C167.41 518.839 167.217 518.47 166.933 518.211C166.65 517.952 166.296 517.821 165.936 517.842C165.575 517.862 165.234 518.034 164.974 518.324C164.714 518.614 164.554 519.004 164.522 519.421L152.346 648.028C152.232 649.383 151.67 650.634 150.777 651.516C149.885 652.399 148.732 652.844 147.562 652.759L135.079 652.219C133.985 652.129 132.958 651.577 132.19 650.668C131.423 649.758 130.969 648.554 130.914 647.282L131.911 491.87L196.626 482.477L201.147 563.549L201.129 563.635L184.61 648.582C184.372 649.714 183.814 650.721 183.025 651.442C182.237 652.163 181.262 652.556 180.259 652.557L180.259 652.557Z" id="Shape" fill="#2F2E41" stroke="none" />
          <path d="M153.253 315.391C165.708 315.391 175.804 303.667 175.804 289.205C175.804 274.742 165.708 263.019 153.253 263.019C140.798 263.019 130.701 274.742 130.701 289.205C130.701 303.667 140.798 315.391 153.253 315.391L153.253 315.391Z" id="Shape" fill="#A0616A" stroke="none" />
          <path d="M174.502 503.697C170.974 503.721 167.515 502.572 164.533 500.386C153.606 492.458 141.201 495.608 134.777 498.192C134.139 498.452 133.46 498.54 132.788 498.451C132.117 498.363 131.472 498.099 130.901 497.68C130.337 497.268 129.86 496.714 129.506 496.058C129.153 495.402 128.931 494.662 128.859 493.893L117.179 372.75C115.221 352.453 125.751 333.369 142.216 327.374C142.835 327.149 143.464 326.936 144.103 326.735C149.227 325.122 154.593 324.832 159.823 325.886C165.054 326.94 170.022 329.313 174.378 332.836C178.815 336.398 182.526 341.046 185.249 346.453C187.972 351.86 189.642 357.894 190.14 364.131L199.975 486.086C200.042 486.876 199.95 487.672 199.707 488.414C199.464 489.155 199.075 489.821 198.573 490.358C195.124 494.06 185.118 503.696 174.502 503.697L174.502 503.697Z" id="Shape" fill="#D97706" stroke="none" />
          <path d="M138.93 398.728L112.578 395.363C111.828 395.268 111.105 394.985 110.457 394.536C109.81 394.086 109.253 393.48 108.826 392.758C108.398 392.036 108.11 391.216 107.98 390.353C107.851 389.49 107.882 388.605 108.074 387.757L114.782 358.069C114.98 355.844 115.555 353.686 116.475 351.721C117.395 349.755 118.642 348.021 120.143 346.618C121.643 345.215 123.368 344.172 125.219 343.548C127.069 342.924 129.007 342.732 130.921 342.983C132.836 343.234 134.688 343.923 136.372 345.01C138.056 346.098 139.537 347.561 140.73 349.317C141.924 351.073 142.806 353.087 143.325 355.241C143.845 357.395 143.991 359.647 143.757 361.868L144.753 392.44C144.782 393.315 144.647 394.188 144.359 394.998C144.071 395.807 143.636 396.536 143.084 397.133C142.532 397.73 141.875 398.181 141.159 398.457C140.443 398.733 139.684 398.826 138.934 398.73L138.93 398.728L138.93 398.728Z" id="Shape" fill="#D97706" stroke="none" />
          <path d="M199.868 492.062C200.95 490.955 201.81 489.587 202.388 488.053C202.966 486.518 203.247 484.856 203.211 483.182C203.176 481.508 202.824 479.863 202.182 478.364C201.54 476.865 200.623 475.547 199.495 474.504L193 375.52L173.912 380.509L185.114 476.905C183.729 479.222 183.124 482.048 183.414 484.847C183.704 487.647 184.869 490.226 186.688 492.095C188.506 493.964 190.853 494.993 193.281 494.987C195.71 494.981 198.052 493.94 199.864 492.062L199.868 492.062L199.868 492.062Z" id="Shape" fill="#A0616A" stroke="none" />
          <path d="M166.595 392.506C166.043 391.91 165.607 391.182 165.319 390.372C165.031 389.562 164.897 388.69 164.926 387.815L165.922 357.243C165.707 355.034 165.869 352.797 166.399 350.661C166.928 348.524 167.815 346.53 169.008 344.792C170.202 343.053 171.678 341.605 173.354 340.529C175.029 339.453 176.871 338.771 178.773 338.522C180.676 338.272 182.602 338.46 184.442 339.075C186.282 339.69 187.999 340.72 189.497 342.105C190.994 343.491 192.241 345.206 193.168 347.151C194.094 349.097 194.682 351.235 194.896 353.444L201.605 383.132C201.796 383.98 201.828 384.865 201.698 385.728C201.569 386.591 201.28 387.411 200.853 388.133C200.425 388.855 199.869 389.461 199.222 389.911C198.574 390.36 197.851 390.643 197.101 390.738L170.749 394.103C169.999 394.199 169.24 394.106 168.523 393.83C167.807 393.554 167.151 393.102 166.599 392.504L166.595 392.506L166.595 392.506Z" id="Shape" fill="#D97706" stroke="none" />
          <path d="M151.911 316.377C151.509 316.377 151.109 316.323 150.718 316.216L150.603 316.184C130.775 312.665 126.393 299.326 125.432 293.757C124.436 287.991 125.569 282.426 128.131 280.264C126.734 275.146 126.958 270.603 128.799 266.764C132.012 260.069 138.973 257.808 139.909 257.527C145.471 252.762 152.126 255.943 153.337 256.588C164.098 251.966 168.212 255.812 168.954 256.672C173.763 257.675 176.695 259.832 177.668 263.086C179.497 269.196 173.716 276.797 173.469 277.118L173.34 277.284L164.727 277.76C163.91 277.806 163.11 278.05 162.379 278.477C161.649 278.905 161.004 279.506 160.486 280.241C159.968 280.977 159.589 281.831 159.374 282.747C159.158 283.664 159.111 284.623 159.236 285.562C159.469 286.773 159.763 287.967 160.117 289.139C161.586 294.476 162.688 299.036 161.269 300.769C160.947 301.105 160.55 301.328 160.123 301.414C159.697 301.5 159.259 301.444 158.858 301.254C157.511 300.836 156.598 300.924 156.142 301.516C155.435 302.431 155.651 304.751 156.75 308.046C157.095 309.088 157.188 310.219 157.019 311.318C156.849 312.417 156.424 313.441 155.79 314.28C155.312 314.934 154.718 315.46 154.048 315.822C153.378 316.184 152.648 316.374 151.909 316.377L151.911 316.377L151.911 316.377Z" id="Shape" fill="#2F2E41" stroke="none" />
        </g>
      </g>
    </g>
  </g>
</svg>