<?xml version="1.0" encoding="utf-8"?>
<svg width="838px" height="742px" viewBox="0 0 838 742" version="1.1" xmlns:xlink="http://www.w3.org/1999/xlink" xmlns="http://www.w3.org/2000/svg">
  <defs>
    <path d="M0 0L838 0L838 742L0 742L0 0Z" id="path_1" />
    <clipPath id="mask_1">
      <use xlink:href="#path_1" />
    </clipPath>
  </defs>
  <g id="svg-2">
    <g id="Mask-Group">
      <path d="M0 0L838 0L838 742L0 742L0 0Z" id="Rectangle" fill="none" fill-rule="evenodd" stroke="none" />
      <g clip-path="url(#mask_1)">
        <g id="Group" transform="translate(1.5258827E-05 0)">
          <path d="M113.73 718.95L122.732 702.425L124.531 711.868C124.846 713.522 125.161 715.202 125.453 716.869C128.01 714.375 130.731 712.068 133.393 709.854C141.567 703.078 149.737 696.294 157.903 689.5L155.345 706.439C153.769 716.869 152.122 727.513 148.223 737.049C147.79 738.129 147.323 739.197 146.821 740.237L108.825 740.237C108.52 739.27 108.308 738.269 108.195 737.249C108.185 737.183 108.181 737.116 108.183 737.049C107.587 730.58 110.717 724.485 113.73 718.95L113.73 718.95Z" id="Shape" fill="#F0F0F0" stroke="none" />
          <path d="M684.89 0L126.11 0C121.31 0.00936077 116.708 2.35304 113.313 6.51744C109.918 10.6818 108.008 16.3273 108 22.2167L108 484.783C108.005 490.674 109.914 496.322 113.31 500.487C116.705 504.652 121.309 506.994 126.11 507L684.89 507C689.691 506.994 694.295 504.652 697.69 500.487C701.086 496.322 702.995 490.674 703 484.783L703 22.2166C702.992 16.3273 701.082 10.6818 697.687 6.51742C694.292 2.35303 689.69 0.00936073 684.89 0L684.89 0Z" id="Shape" fill="#D97706" stroke="none" />
          <path d="M681.922 485L323.522 485C273.303 484.818 225.182 460.019 189.672 416.02C154.161 372.02 134.147 312.397 134 250.173L134 26.5109C134 23.1971 135.062 20.0189 136.951 17.6734C138.84 15.328 141.403 14.0069 144.078 14L681.922 14C684.596 14.0069 687.16 15.328 689.049 17.6734C690.938 20.0188 692 23.1971 692 26.5109L692 472.513C691.997 475.824 690.934 478.998 689.045 481.339C687.156 483.68 684.594 484.996 681.922 485L681.922 485Z" id="Shape" fill="#FFFFFF" stroke="none" />
          <path d="M654.984 69.6854L162.942 69.6854C162.43 69.6726 161.943 69.4315 161.586 69.0137C161.228 68.596 161.027 68.0348 161.027 67.4504C161.027 66.866 161.228 66.3048 161.586 65.8871C161.943 65.4693 162.43 65.2282 162.942 65.2153L654.984 65.2153C655.495 65.2282 655.982 65.4693 656.34 65.8871C656.697 66.3048 656.898 66.866 656.898 67.4504C656.898 68.0348 656.697 68.596 656.34 69.0137C655.982 69.4315 655.495 69.6726 654.984 69.6854L654.984 69.6854Z" id="Shape" fill="#CACACA" stroke="none" />
          <path d="M196.435 53.8038C202.769 53.8038 207.903 47.8088 207.903 40.4135C207.903 33.0182 202.769 27.0232 196.435 27.0232C190.102 27.0232 184.968 33.0182 184.968 40.4135C184.968 47.8088 190.102 53.8038 196.435 53.8038L196.435 53.8038Z" id="Shape" fill="#FF6501" stroke="none" />
          <path d="M236.05 53.8038C242.383 53.8038 247.517 47.8088 247.517 40.4135C247.517 33.0182 242.383 27.0232 236.05 27.0232C229.716 27.0232 224.582 33.0182 224.582 40.4135C224.582 47.8088 229.716 53.8038 236.05 53.8038L236.05 53.8038Z" id="Shape" fill="#FF6501" stroke="none" />
          <path d="M275.664 53.8038C281.997 53.8038 287.131 47.8088 287.131 40.4135C287.131 33.0182 281.997 27.0232 275.664 27.0232C269.331 27.0232 264.197 33.0182 264.197 40.4135C264.197 47.8088 269.331 53.8038 275.664 53.8038L275.664 53.8038Z" id="Shape" fill="#FF6501" stroke="none" />
          <path d="M605.678 727.989L593.212 727.988L587.282 685.072L605.68 685.073L605.678 727.989L605.678 727.989Z" id="Shape" fill="#FFB6B6" stroke="none" />
          <path d="M606.116 739.596L567.783 739.595L567.783 739.162C567.783 735.63 569.355 732.243 572.153 729.746C574.952 727.248 578.746 725.845 582.703 725.845L589.706 721.104L602.771 725.846L606.117 725.846L606.116 739.596L606.116 739.596Z" id="Shape" fill="#2F2E41" stroke="none" />
          <path d="M654.779 727.989L642.314 727.988L636.384 685.072L654.782 685.073L654.779 727.989L654.779 727.989Z" id="Shape" fill="#FFB6B6" stroke="none" />
          <path d="M655.218 739.596L616.885 739.595L616.885 739.162C616.885 735.63 618.457 732.243 621.255 729.746C624.053 727.248 627.848 725.845 631.805 725.845L638.808 721.104L651.872 725.846L655.219 725.846L655.218 739.596L655.218 739.596Z" id="Shape" fill="#2F2E41" stroke="none" />
          <path d="M562.781 459.194L553.968 486.165L564.35 600.39C564.35 600.39 559.004 607.531 562.781 607.531C566.558 607.531 571.401 609.115 568.35 613.38C565.299 617.645 575.728 632.957 575.728 632.957L590.479 714.289L609.275 714.041C609.275 714.041 618.831 709.29 613.468 704.485C608.106 699.68 604.328 699.68 609.365 695.185C614.401 690.69 614.401 692.044 614.401 688.558C614.401 685.071 619.446 642.465 607.481 626.122L611.086 559.488L619.578 624.848L637.063 712.042L655.17 711.908C655.17 711.908 663.533 704.713 663.518 699.387C663.502 694.061 658.35 693.619 662.185 690.469C666.02 687.319 666.02 638.926 654.689 612.026L654.776 491.704C654.776 491.704 665.909 464.699 654.633 454.08C643.358 443.462 562.781 459.194 562.781 459.194L562.781 459.194Z" id="Shape" fill="#2F2E41" stroke="none" />
          <path d="M676.269 412.138L683.86 341.96C684.171 338.986 683.16 336.022 681.045 333.707C678.93 331.392 675.88 329.913 672.553 329.587C669.192 329.259 665.822 330.136 663.185 332.025C660.548 333.914 658.859 336.661 658.491 339.661C658.466 339.861 658.448 340.062 658.435 340.263L653.054 413.377L647.687 457.68C645.499 458.268 643.566 459.442 642.152 461.043C640.738 462.644 639.91 464.596 639.781 466.632C639.652 468.668 640.229 470.689 641.433 472.423C642.636 474.156 644.409 475.516 646.509 476.319C648.609 477.122 650.935 477.329 653.171 476.911C655.407 476.493 657.445 475.47 659.007 473.982C660.569 472.495 661.581 470.614 661.904 468.595C662.227 466.576 661.846 464.518 660.812 462.699L676.269 412.138L676.269 412.138Z" id="Shape" fill="#FFB6B6" stroke="none" />
          <path d="M647.805 306.387L675.154 309.448C675.154 309.448 695.646 343.923 691.428 346.849C687.211 349.775 668.151 368.028 654.1 359.66C640.049 351.292 647.805 306.387 647.805 306.387L647.805 306.387Z" id="Shape" fill="#D97706" stroke="none" />
          <path d="M600.707 273.31C616.739 273.31 629.735 261.71 629.735 247.401C629.735 233.092 616.739 221.492 600.707 221.492C584.676 221.492 571.68 233.092 571.68 247.401C571.68 261.71 584.676 273.31 600.707 273.31L600.707 273.31Z" id="Shape" fill="#FFB6B6" stroke="none" />
          <path d="M611.923 271.187C603.593 270.943 602.837 268.979 594.507 268.735C591.855 268.657 588.725 268.333 587.443 266.259C587.069 265.482 586.903 264.638 586.957 263.795C587.011 262.951 587.284 262.129 587.753 261.395C588.704 259.938 589.561 258.434 590.319 256.89C590.777 255.679 590.897 254.387 590.669 253.125C590.441 251.863 589.873 250.67 589.013 249.649C588.152 248.627 587.027 247.808 585.732 247.262C584.438 246.716 583.014 246.459 581.584 246.515C579.049 246.612 576.668 247.676 574.14 247.871C570.674 248.138 563.008 237.921 564.604 235.161C566.157 232.474 569.284 230.447 569.776 227.456C570.097 225.5 569.192 223.556 569.069 221.582C568.885 218.654 577.199 225.255 575.676 222.657C571.941 216.284 607.136 208.383 612.93 216.366C615.096 219.349 618.955 219.146 622.395 220.938C624.649 222.112 630.342 226.163 631.636 228.688C632.826 231.265 633.388 234.038 633.285 236.823C633.337 249.776 631.126 261.691 619.421 269.347" id="Shape" fill="#2F2E41" stroke="none" />
          <path d="M592.997 280.516L616.919 276.021L635.293 283.909C635.293 283.909 678.752 299.513 678.605 314.899C678.457 330.284 670.818 363.997 662.047 367.368C653.276 370.74 669.644 381.977 664.607 388.72C659.571 395.463 651.943 441.527 651.943 441.527C651.943 441.527 669.777 473.237 654.689 479.422C639.601 485.607 575.838 491.39 571.75 483.32C567.663 475.25 567.625 479.654 558.201 477.452C548.778 475.25 558.211 444.377 566.714 441.272C575.217 438.166 580.253 370.74 580.253 370.74L566.714 318.312L587.371 292.359L592.997 280.516L592.997 280.516Z" id="Shape" fill="#D97706" stroke="none" />
          <path d="M576.243 424.627L597.855 356.812C598.761 353.937 598.364 350.859 596.75 348.242C595.136 345.626 592.433 343.68 589.227 342.826C585.986 341.963 582.495 342.284 579.52 343.719C576.545 345.154 574.33 347.585 573.364 350.477C573.299 350.67 573.24 350.864 573.187 351.06L553.157 422.117L538.947 464.836C536.676 465.062 534.539 465.907 532.825 467.255C531.111 468.603 529.903 470.39 529.366 472.372C528.829 474.354 528.989 476.435 529.823 478.334C530.658 480.232 532.127 481.855 534.031 482.982C535.935 484.109 538.182 484.686 540.465 484.633C542.749 484.581 544.96 483.903 546.797 482.69C548.633 481.477 550.008 479.789 550.732 477.855C551.457 475.922 551.497 473.835 550.847 471.88L576.243 424.627L576.243 424.627Z" id="Shape" fill="#FFB6B6" stroke="none" />
          <path d="M569.558 316.03L595.844 323.433C595.844 323.433 612.941 345.841 606.541 349.038C600.141 352.234 597.739 351.558 601.027 357.197C604.314 362.837 609.053 360.636 604.314 362.837C599.576 365.037 577.148 379.932 565.013 369.445C552.878 358.957 569.558 316.03 569.558 316.03L569.558 316.03Z" id="Shape" fill="#D97706" stroke="none" />
          <path d="M6.18527e-06 740.413C-0.00053745 740.621 0.0347598 740.827 0.103881 741.019C0.173001 741.211 0.274591 741.386 0.402853 741.533C0.531115 741.681 0.683543 741.798 0.851419 741.878C1.01929 741.958 1.19933 741.999 1.38126 742L836.61 742C836.979 742 837.332 741.833 837.593 741.535C837.854 741.237 838 740.834 838 740.413C838 739.992 837.854 739.588 837.593 739.291C837.332 738.993 836.979 738.826 836.61 738.826L1.38953 738.826C1.20759 738.825 1.02733 738.865 0.859045 738.944C0.690749 739.023 0.537709 739.139 0.408679 739.286C0.27965 739.432 0.177154 739.606 0.107034 739.798C0.0369142 739.99 0.000540553 740.196 6.18527e-06 740.404L6.18527e-06 740.413L6.18527e-06 740.413Z" id="Shape" fill="#CCCCCC" stroke="none" />
          <path d="M450.267 175.344L250.596 175.344C246.725 175.344 243.012 173.587 240.275 170.461C237.538 167.334 236 163.094 236 158.672C236 154.25 237.538 150.01 240.275 146.883C243.012 143.757 246.725 142 250.596 142L450.267 142C454.138 142 457.851 143.757 460.588 146.883C463.325 150.01 464.863 154.25 464.863 158.672C464.863 163.094 463.325 167.334 460.588 170.461C457.851 173.587 454.138 175.344 450.267 175.344L450.267 175.344ZM250.596 144.668C247.344 144.668 244.226 146.143 241.926 148.769C239.627 151.396 238.335 154.958 238.335 158.672C238.335 162.386 239.627 165.948 241.926 168.575C244.226 171.201 247.344 172.676 250.596 172.676L450.267 172.676C453.519 172.676 456.637 171.201 458.936 168.575C461.236 165.948 462.527 162.386 462.527 158.672C462.527 154.958 461.236 151.396 458.936 148.769C456.637 146.143 453.519 144.668 450.267 144.668L250.596 144.668L250.596 144.668Z" id="Shape" fill="#3F3D56" fill-rule="evenodd" stroke="none" />
          <path d="M466.834 183.449C479.998 183.449 490.669 171.26 490.669 156.225C490.669 141.189 479.998 129 466.834 129C453.671 129 443 141.189 443 156.225C443 171.26 453.671 183.449 466.834 183.449L466.834 183.449Z" id="Shape" fill="#D97706" stroke="none" />
          <path d="M462.153 169.348C461.742 169.348 461.336 169.238 460.968 169.028C460.6 168.818 460.279 168.512 460.033 168.136L453.53 158.233C453.108 157.591 452.927 156.783 453.027 155.988C453.126 155.193 453.498 154.475 454.061 153.993C454.623 153.512 455.33 153.305 456.026 153.418C456.722 153.532 457.35 153.957 457.772 154.599L462.026 161.078L472.952 142.358C473.34 141.688 473.945 141.221 474.634 141.061C475.323 140.901 476.04 141.059 476.626 141.503C477.213 141.946 477.621 142.637 477.761 143.424C477.902 144.211 477.763 145.029 477.375 145.699L477.364 145.717L464.359 167.999C464.124 168.402 463.808 168.735 463.437 168.969C463.066 169.204 462.651 169.333 462.227 169.347L462.153 169.348L462.153 169.348Z" id="Shape" fill="#000000" stroke="none" />
          <path d="M299.926 162.338C299.926 162.045 299.88 161.785 299.789 161.557C299.704 161.329 299.551 161.12 299.33 160.932C299.109 160.743 298.796 160.561 298.393 160.385C297.995 160.202 297.488 160.017 296.869 159.828C296.192 159.62 295.567 159.389 294.994 159.135C294.428 158.874 293.933 158.575 293.51 158.236C293.087 157.891 292.758 157.497 292.523 157.055C292.289 156.605 292.172 156.088 292.172 155.502C292.172 154.923 292.292 154.395 292.533 153.92C292.781 153.445 293.129 153.035 293.578 152.689C294.034 152.338 294.571 152.068 295.189 151.879C295.808 151.684 296.492 151.586 297.24 151.586C298.295 151.586 299.203 151.781 299.965 152.172C300.733 152.562 301.322 153.087 301.732 153.744C302.149 154.402 302.357 155.128 302.357 155.922L299.926 155.922C299.926 155.453 299.825 155.04 299.623 154.682C299.428 154.317 299.128 154.031 298.725 153.822C298.327 153.614 297.823 153.51 297.211 153.51C296.632 153.51 296.15 153.598 295.766 153.773C295.382 153.949 295.095 154.187 294.906 154.486C294.717 154.786 294.623 155.124 294.623 155.502C294.623 155.769 294.685 156.013 294.809 156.234C294.932 156.449 295.121 156.651 295.375 156.84C295.629 157.022 295.948 157.195 296.332 157.357C296.716 157.52 297.169 157.676 297.689 157.826C298.477 158.061 299.164 158.321 299.75 158.607C300.336 158.887 300.824 159.206 301.215 159.564C301.605 159.923 301.898 160.329 302.094 160.785C302.289 161.234 302.387 161.745 302.387 162.318C302.387 162.917 302.266 163.458 302.025 163.939C301.785 164.415 301.439 164.822 300.99 165.16C300.548 165.492 300.014 165.749 299.389 165.932C298.77 166.107 298.08 166.195 297.318 166.195C296.635 166.195 295.961 166.104 295.297 165.922C294.639 165.74 294.04 165.463 293.5 165.092C292.96 164.714 292.53 164.245 292.211 163.686C291.892 163.119 291.732 162.458 291.732 161.703L294.184 161.703C294.184 162.165 294.262 162.559 294.418 162.885C294.581 163.21 294.805 163.477 295.092 163.686C295.378 163.887 295.71 164.037 296.088 164.135C296.472 164.232 296.882 164.281 297.318 164.281C297.891 164.281 298.37 164.2 298.754 164.037C299.145 163.874 299.438 163.646 299.633 163.354C299.828 163.061 299.926 162.722 299.926 162.338L299.926 162.338ZM309.164 155.434L309.164 157.152L303.207 157.152L303.207 155.434L309.164 155.434L309.164 155.434ZM304.926 152.846L307.279 152.846L307.279 163.08C307.279 163.406 307.325 163.656 307.416 163.832C307.514 164.001 307.647 164.115 307.816 164.174C307.986 164.232 308.184 164.262 308.412 164.262C308.575 164.262 308.731 164.252 308.881 164.232C309.031 164.213 309.151 164.193 309.242 164.174L309.252 165.971C309.057 166.029 308.829 166.081 308.568 166.127C308.314 166.173 308.021 166.195 307.689 166.195C307.149 166.195 306.671 166.101 306.254 165.912C305.837 165.717 305.512 165.401 305.277 164.965C305.043 164.529 304.926 163.949 304.926 163.227L304.926 152.846L304.926 152.846ZM313.344 157.445L313.344 166L310.99 166L310.99 155.434L313.236 155.434L313.344 157.445L313.344 157.445ZM316.576 155.365L316.557 157.553C316.413 157.527 316.257 157.507 316.088 157.494C315.925 157.481 315.762 157.475 315.6 157.475C315.196 157.475 314.841 157.533 314.535 157.65C314.229 157.761 313.972 157.924 313.764 158.139C313.562 158.347 313.406 158.601 313.295 158.9C313.184 159.2 313.119 159.535 313.1 159.906L312.562 159.945C312.562 159.281 312.628 158.666 312.758 158.1C312.888 157.533 313.083 157.035 313.344 156.605C313.611 156.176 313.943 155.84 314.34 155.6C314.743 155.359 315.209 155.238 315.736 155.238C315.88 155.238 316.033 155.251 316.195 155.277C316.365 155.303 316.492 155.333 316.576 155.365L316.576 155.365ZM322.514 166.195C321.732 166.195 321.026 166.068 320.395 165.814C319.77 165.554 319.236 165.193 318.793 164.73C318.357 164.268 318.021 163.725 317.787 163.1C317.553 162.475 317.436 161.801 317.436 161.078L317.436 160.688C317.436 159.861 317.556 159.112 317.797 158.441C318.038 157.771 318.373 157.198 318.803 156.723C319.232 156.241 319.74 155.873 320.326 155.619C320.912 155.365 321.547 155.238 322.23 155.238C322.986 155.238 323.646 155.365 324.213 155.619C324.779 155.873 325.248 156.231 325.619 156.693C325.997 157.149 326.277 157.693 326.459 158.324C326.648 158.956 326.742 159.652 326.742 160.414L326.742 161.42L318.578 161.42L318.578 159.73L324.418 159.73L324.418 159.545C324.405 159.122 324.32 158.725 324.164 158.354C324.014 157.982 323.783 157.683 323.471 157.455C323.158 157.227 322.742 157.113 322.221 157.113C321.83 157.113 321.482 157.198 321.176 157.367C320.876 157.53 320.626 157.768 320.424 158.08C320.222 158.393 320.066 158.77 319.955 159.213C319.851 159.649 319.799 160.141 319.799 160.688L319.799 161.078C319.799 161.54 319.861 161.97 319.984 162.367C320.115 162.758 320.303 163.1 320.551 163.393C320.798 163.686 321.098 163.917 321.449 164.086C321.801 164.249 322.201 164.33 322.65 164.33C323.217 164.33 323.721 164.216 324.164 163.988C324.607 163.76 324.991 163.438 325.316 163.021L326.557 164.223C326.329 164.555 326.033 164.874 325.668 165.18C325.303 165.479 324.857 165.723 324.33 165.912C323.809 166.101 323.204 166.195 322.514 166.195L322.514 166.195ZM334.506 163.139C334.506 162.904 334.447 162.693 334.33 162.504C334.213 162.309 333.988 162.133 333.656 161.977C333.331 161.82 332.849 161.677 332.211 161.547C331.651 161.423 331.137 161.277 330.668 161.107C330.206 160.932 329.809 160.72 329.477 160.473C329.145 160.225 328.887 159.932 328.705 159.594C328.523 159.255 328.432 158.865 328.432 158.422C328.432 157.992 328.526 157.585 328.715 157.201C328.904 156.817 329.174 156.479 329.525 156.186C329.877 155.893 330.303 155.661 330.805 155.492C331.312 155.323 331.879 155.238 332.504 155.238C333.389 155.238 334.148 155.388 334.779 155.688C335.417 155.98 335.906 156.381 336.244 156.889C336.583 157.39 336.752 157.956 336.752 158.588L334.398 158.588C334.398 158.308 334.327 158.048 334.184 157.807C334.047 157.559 333.839 157.361 333.559 157.211C333.279 157.055 332.927 156.977 332.504 156.977C332.1 156.977 331.765 157.042 331.498 157.172C331.238 157.296 331.042 157.458 330.912 157.66C330.788 157.862 330.727 158.083 330.727 158.324C330.727 158.5 330.759 158.66 330.824 158.803C330.896 158.939 331.013 159.066 331.176 159.184C331.339 159.294 331.56 159.398 331.84 159.496C332.126 159.594 332.484 159.688 332.914 159.779C333.721 159.949 334.415 160.167 334.994 160.434C335.58 160.694 336.029 161.033 336.342 161.449C336.654 161.859 336.811 162.38 336.811 163.012C336.811 163.48 336.71 163.91 336.508 164.301C336.312 164.685 336.026 165.02 335.648 165.307C335.271 165.587 334.818 165.805 334.291 165.961C333.77 166.117 333.184 166.195 332.533 166.195C331.576 166.195 330.766 166.026 330.102 165.688C329.438 165.342 328.933 164.903 328.588 164.369C328.249 163.829 328.08 163.269 328.08 162.689L330.355 162.689C330.382 163.126 330.502 163.474 330.717 163.734C330.938 163.988 331.212 164.174 331.537 164.291C331.869 164.402 332.211 164.457 332.562 164.457C332.986 164.457 333.34 164.402 333.627 164.291C333.913 164.174 334.132 164.018 334.281 163.822C334.431 163.62 334.506 163.393 334.506 163.139L334.506 163.139ZM344.799 163.139C344.799 162.904 344.74 162.693 344.623 162.504C344.506 162.309 344.281 162.133 343.949 161.977C343.624 161.82 343.142 161.677 342.504 161.547C341.944 161.423 341.43 161.277 340.961 161.107C340.499 160.932 340.102 160.72 339.77 160.473C339.438 160.225 339.18 159.932 338.998 159.594C338.816 159.255 338.725 158.865 338.725 158.422C338.725 157.992 338.819 157.585 339.008 157.201C339.197 156.817 339.467 156.479 339.818 156.186C340.17 155.893 340.596 155.661 341.098 155.492C341.605 155.323 342.172 155.238 342.797 155.238C343.682 155.238 344.441 155.388 345.072 155.688C345.71 155.98 346.199 156.381 346.537 156.889C346.876 157.39 347.045 157.956 347.045 158.588L344.691 158.588C344.691 158.308 344.62 158.048 344.477 157.807C344.34 157.559 344.132 157.361 343.852 157.211C343.572 157.055 343.22 156.977 342.797 156.977C342.393 156.977 342.058 157.042 341.791 157.172C341.531 157.296 341.335 157.458 341.205 157.66C341.081 157.862 341.02 158.083 341.02 158.324C341.02 158.5 341.052 158.66 341.117 158.803C341.189 158.939 341.306 159.066 341.469 159.184C341.632 159.294 341.853 159.398 342.133 159.496C342.419 159.594 342.777 159.688 343.207 159.779C344.014 159.949 344.708 160.167 345.287 160.434C345.873 160.694 346.322 161.033 346.635 161.449C346.947 161.859 347.104 162.38 347.104 163.012C347.104 163.48 347.003 163.91 346.801 164.301C346.605 164.685 346.319 165.02 345.941 165.307C345.564 165.587 345.111 165.805 344.584 165.961C344.063 166.117 343.477 166.195 342.826 166.195C341.869 166.195 341.059 166.026 340.395 165.688C339.73 165.342 339.226 164.903 338.881 164.369C338.542 163.829 338.373 163.269 338.373 162.689L340.648 162.689C340.674 163.126 340.795 163.474 341.01 163.734C341.231 163.988 341.505 164.174 341.83 164.291C342.162 164.402 342.504 164.457 342.855 164.457C343.279 164.457 343.633 164.402 343.92 164.291C344.206 164.174 344.424 164.018 344.574 163.822C344.724 163.62 344.799 163.393 344.799 163.139L344.799 163.139ZM357.328 166L354.975 166L354.975 154.418C354.975 153.63 355.121 152.969 355.414 152.436C355.714 151.895 356.14 151.488 356.693 151.215C357.247 150.935 357.901 150.795 358.656 150.795C358.891 150.795 359.122 150.811 359.35 150.844C359.577 150.87 359.799 150.912 360.014 150.971L359.955 152.787C359.825 152.755 359.682 152.732 359.525 152.719C359.376 152.706 359.213 152.699 359.037 152.699C358.679 152.699 358.37 152.768 358.109 152.904C357.855 153.035 357.66 153.227 357.523 153.48C357.393 153.734 357.328 154.047 357.328 154.418L357.328 166L357.328 166ZM359.506 155.434L359.506 157.152L353.354 157.152L353.354 155.434L359.506 155.434L359.506 155.434ZM363.578 157.445L363.578 166L361.225 166L361.225 155.434L363.471 155.434L363.578 157.445L363.578 157.445ZM366.811 155.365L366.791 157.553C366.648 157.527 366.492 157.507 366.322 157.494C366.16 157.481 365.997 157.475 365.834 157.475C365.43 157.475 365.076 157.533 364.77 157.65C364.464 157.761 364.206 157.924 363.998 158.139C363.796 158.347 363.64 158.601 363.529 158.9C363.419 159.2 363.354 159.535 363.334 159.906L362.797 159.945C362.797 159.281 362.862 158.666 362.992 158.1C363.122 157.533 363.318 157.035 363.578 156.605C363.845 156.176 364.177 155.84 364.574 155.6C364.978 155.359 365.443 155.238 365.971 155.238C366.114 155.238 366.267 155.251 366.43 155.277C366.599 155.303 366.726 155.333 366.811 155.365L366.811 155.365ZM372.748 166.195C371.967 166.195 371.26 166.068 370.629 165.814C370.004 165.554 369.47 165.193 369.027 164.73C368.591 164.268 368.256 163.725 368.021 163.1C367.787 162.475 367.67 161.801 367.67 161.078L367.67 160.688C367.67 159.861 367.79 159.112 368.031 158.441C368.272 157.771 368.607 157.198 369.037 156.723C369.467 156.241 369.975 155.873 370.561 155.619C371.146 155.365 371.781 155.238 372.465 155.238C373.22 155.238 373.881 155.365 374.447 155.619C375.014 155.873 375.482 156.231 375.854 156.693C376.231 157.149 376.511 157.693 376.693 158.324C376.882 158.956 376.977 159.652 376.977 160.414L376.977 161.42L368.812 161.42L368.812 159.73L374.652 159.73L374.652 159.545C374.639 159.122 374.555 158.725 374.398 158.354C374.249 157.982 374.018 157.683 373.705 157.455C373.393 157.227 372.976 157.113 372.455 157.113C372.064 157.113 371.716 157.198 371.41 157.367C371.111 157.53 370.86 157.768 370.658 158.08C370.456 158.393 370.3 158.77 370.189 159.213C370.085 159.649 370.033 160.141 370.033 160.688L370.033 161.078C370.033 161.54 370.095 161.97 370.219 162.367C370.349 162.758 370.538 163.1 370.785 163.393C371.033 163.686 371.332 163.917 371.684 164.086C372.035 164.249 372.436 164.33 372.885 164.33C373.451 164.33 373.956 164.216 374.398 163.988C374.841 163.76 375.225 163.438 375.551 163.021L376.791 164.223C376.563 164.555 376.267 164.874 375.902 165.18C375.538 165.479 375.092 165.723 374.564 165.912C374.044 166.101 373.438 166.195 372.748 166.195L372.748 166.195ZM383.471 166.195C382.689 166.195 381.983 166.068 381.352 165.814C380.727 165.554 380.193 165.193 379.75 164.73C379.314 164.268 378.979 163.725 378.744 163.1C378.51 162.475 378.393 161.801 378.393 161.078L378.393 160.688C378.393 159.861 378.513 159.112 378.754 158.441C378.995 157.771 379.33 157.198 379.76 156.723C380.189 156.241 380.697 155.873 381.283 155.619C381.869 155.365 382.504 155.238 383.188 155.238C383.943 155.238 384.604 155.365 385.17 155.619C385.736 155.873 386.205 156.231 386.576 156.693C386.954 157.149 387.234 157.693 387.416 158.324C387.605 158.956 387.699 159.652 387.699 160.414L387.699 161.42L379.535 161.42L379.535 159.73L385.375 159.73L385.375 159.545C385.362 159.122 385.277 158.725 385.121 158.354C384.971 157.982 384.74 157.683 384.428 157.455C384.115 157.227 383.699 157.113 383.178 157.113C382.787 157.113 382.439 157.198 382.133 157.367C381.833 157.53 381.583 157.768 381.381 158.08C381.179 158.393 381.023 158.77 380.912 159.213C380.808 159.649 380.756 160.141 380.756 160.688L380.756 161.078C380.756 161.54 380.818 161.97 380.941 162.367C381.072 162.758 381.26 163.1 381.508 163.393C381.755 163.686 382.055 163.917 382.406 164.086C382.758 164.249 383.158 164.33 383.607 164.33C384.174 164.33 384.678 164.216 385.121 163.988C385.564 163.76 385.948 163.438 386.273 163.021L387.514 164.223C387.286 164.555 386.99 164.874 386.625 165.18C386.26 165.479 385.814 165.723 385.287 165.912C384.766 166.101 384.161 166.195 383.471 166.195L383.471 166.195Z" id="Shape" fill="#000000" fill-rule="evenodd" stroke="none" />
          <path d="M450.267 246.344L250.596 246.344C246.725 246.344 243.012 244.587 240.275 241.461C237.538 238.334 236 234.094 236 229.672C236 225.25 237.538 221.01 240.275 217.883C243.012 214.757 246.725 213 250.596 213L450.267 213C454.138 213 457.851 214.757 460.588 217.883C463.325 221.01 464.863 225.25 464.863 229.672C464.863 234.094 463.325 238.334 460.588 241.461C457.851 244.587 454.138 246.344 450.267 246.344L450.267 246.344ZM250.596 215.668C247.344 215.668 244.226 217.143 241.926 219.769C239.627 222.396 238.335 225.958 238.335 229.672C238.335 233.386 239.627 236.948 241.926 239.575C244.226 242.201 247.344 243.676 250.596 243.676L450.267 243.676C453.519 243.676 456.637 242.201 458.936 239.575C461.236 236.948 462.527 233.386 462.527 229.672C462.527 225.958 461.236 222.396 458.936 219.769C456.637 217.143 453.519 215.668 450.267 215.668L250.596 215.668L250.596 215.668Z" id="Shape" fill="#3F3D56" fill-rule="evenodd" stroke="none" />
          <path d="M466.834 254.449C479.998 254.449 490.669 242.26 490.669 227.225C490.669 212.189 479.998 200 466.834 200C453.671 200 443 212.189 443 227.225C443 242.26 453.671 254.449 466.834 254.449L466.834 254.449Z" id="Shape" fill="#D97706" stroke="none" />
          <path d="M462.153 240.348C461.742 240.348 461.336 240.238 460.968 240.028C460.6 239.818 460.279 239.512 460.033 239.136L453.53 229.233C453.108 228.591 452.927 227.783 453.027 226.988C453.126 226.193 453.498 225.475 454.061 224.993C454.623 224.512 455.33 224.305 456.026 224.418C456.722 224.532 457.35 224.957 457.772 225.599L462.026 232.078L472.952 213.358C473.34 212.688 473.945 212.221 474.634 212.061C475.323 211.901 476.04 212.059 476.626 212.503C477.213 212.946 477.621 213.637 477.761 214.424C477.902 215.211 477.763 216.029 477.375 216.699L477.364 216.717L464.359 238.999C464.124 239.402 463.808 239.735 463.437 239.969C463.066 240.204 462.651 240.333 462.227 240.347L462.153 240.348L462.153 240.348Z" id="Shape" fill="#000000" stroke="none" />
          <path d="M284.844 232.371L287.285 232.371C287.207 233.302 286.947 234.132 286.504 234.861C286.061 235.584 285.439 236.154 284.639 236.57C283.838 236.987 282.865 237.195 281.719 237.195C280.84 237.195 280.049 237.039 279.346 236.727C278.643 236.408 278.04 235.958 277.539 235.379C277.038 234.793 276.654 234.087 276.387 233.26C276.126 232.433 275.996 231.508 275.996 230.486L275.996 229.305C275.996 228.283 276.13 227.358 276.396 226.531C276.67 225.704 277.061 224.998 277.568 224.412C278.076 223.82 278.685 223.367 279.395 223.055C280.111 222.742 280.915 222.586 281.807 222.586C282.939 222.586 283.896 222.794 284.678 223.211C285.459 223.628 286.064 224.204 286.494 224.939C286.93 225.675 287.197 226.518 287.295 227.469L284.854 227.469C284.788 226.857 284.645 226.333 284.424 225.896C284.209 225.46 283.89 225.128 283.467 224.9C283.044 224.666 282.49 224.549 281.807 224.549C281.247 224.549 280.758 224.653 280.342 224.861C279.925 225.07 279.577 225.376 279.297 225.779C279.017 226.183 278.805 226.681 278.662 227.273C278.525 227.859 278.457 228.53 278.457 229.285L278.457 230.486C278.457 231.202 278.519 231.854 278.643 232.439C278.773 233.019 278.968 233.517 279.229 233.934C279.495 234.35 279.834 234.673 280.244 234.9C280.654 235.128 281.146 235.242 281.719 235.242C282.415 235.242 282.979 235.132 283.408 234.91C283.844 234.689 284.173 234.367 284.395 233.943C284.622 233.514 284.772 232.99 284.844 232.371L284.844 232.371ZM288.828 231.834L288.828 231.609C288.828 230.848 288.939 230.141 289.16 229.49C289.382 228.833 289.701 228.263 290.117 227.781C290.54 227.293 291.055 226.915 291.66 226.648C292.272 226.375 292.962 226.238 293.73 226.238C294.505 226.238 295.195 226.375 295.801 226.648C296.413 226.915 296.93 227.293 297.354 227.781C297.777 228.263 298.099 228.833 298.32 229.49C298.542 230.141 298.652 230.848 298.652 231.609L298.652 231.834C298.652 232.596 298.542 233.302 298.32 233.953C298.099 234.604 297.777 235.174 297.354 235.662C296.93 236.144 296.416 236.521 295.811 236.795C295.205 237.062 294.518 237.195 293.75 237.195C292.975 237.195 292.282 237.062 291.67 236.795C291.064 236.521 290.55 236.144 290.127 235.662C289.704 235.174 289.382 234.604 289.16 233.953C288.939 233.302 288.828 232.596 288.828 231.834L288.828 231.834ZM291.182 231.609L291.182 231.834C291.182 232.309 291.23 232.758 291.328 233.182C291.426 233.605 291.579 233.976 291.787 234.295C291.995 234.614 292.262 234.865 292.588 235.047C292.913 235.229 293.301 235.32 293.75 235.32C294.186 235.32 294.564 235.229 294.883 235.047C295.208 234.865 295.475 234.614 295.684 234.295C295.892 233.976 296.045 233.605 296.143 233.182C296.247 232.758 296.299 232.309 296.299 231.834L296.299 231.609C296.299 231.141 296.247 230.698 296.143 230.281C296.045 229.858 295.889 229.484 295.674 229.158C295.465 228.833 295.199 228.579 294.873 228.396C294.554 228.208 294.173 228.113 293.73 228.113C293.288 228.113 292.904 228.208 292.578 228.396C292.259 228.579 291.995 228.833 291.787 229.158C291.579 229.484 291.426 229.858 291.328 230.281C291.23 230.698 291.182 231.141 291.182 231.609L291.182 231.609ZM306.553 234.139C306.553 233.904 306.494 233.693 306.377 233.504C306.26 233.309 306.035 233.133 305.703 232.977C305.378 232.82 304.896 232.677 304.258 232.547C303.698 232.423 303.184 232.277 302.715 232.107C302.253 231.932 301.855 231.72 301.523 231.473C301.191 231.225 300.934 230.932 300.752 230.594C300.57 230.255 300.479 229.865 300.479 229.422C300.479 228.992 300.573 228.585 300.762 228.201C300.951 227.817 301.221 227.479 301.572 227.186C301.924 226.893 302.35 226.661 302.852 226.492C303.359 226.323 303.926 226.238 304.551 226.238C305.436 226.238 306.195 226.388 306.826 226.688C307.464 226.98 307.952 227.381 308.291 227.889C308.63 228.39 308.799 228.956 308.799 229.588L306.445 229.588C306.445 229.308 306.374 229.048 306.23 228.807C306.094 228.559 305.885 228.361 305.605 228.211C305.326 228.055 304.974 227.977 304.551 227.977C304.147 227.977 303.812 228.042 303.545 228.172C303.285 228.296 303.089 228.458 302.959 228.66C302.835 228.862 302.773 229.083 302.773 229.324C302.773 229.5 302.806 229.66 302.871 229.803C302.943 229.939 303.06 230.066 303.223 230.184C303.385 230.294 303.607 230.398 303.887 230.496C304.173 230.594 304.531 230.688 304.961 230.779C305.768 230.949 306.462 231.167 307.041 231.434C307.627 231.694 308.076 232.033 308.389 232.449C308.701 232.859 308.857 233.38 308.857 234.012C308.857 234.48 308.757 234.91 308.555 235.301C308.359 235.685 308.073 236.02 307.695 236.307C307.318 236.587 306.865 236.805 306.338 236.961C305.817 237.117 305.231 237.195 304.58 237.195C303.623 237.195 302.812 237.026 302.148 236.688C301.484 236.342 300.98 235.903 300.635 235.369C300.296 234.829 300.127 234.269 300.127 233.689L302.402 233.689C302.428 234.126 302.549 234.474 302.764 234.734C302.985 234.988 303.258 235.174 303.584 235.291C303.916 235.402 304.258 235.457 304.609 235.457C305.033 235.457 305.387 235.402 305.674 235.291C305.96 235.174 306.178 235.018 306.328 234.822C306.478 234.62 306.553 234.393 306.553 234.139L306.553 234.139ZM315.762 226.434L315.762 228.152L309.805 228.152L309.805 226.434L315.762 226.434L315.762 226.434ZM311.523 223.846L313.877 223.846L313.877 234.08C313.877 234.406 313.923 234.656 314.014 234.832C314.111 235.001 314.245 235.115 314.414 235.174C314.583 235.232 314.782 235.262 315.01 235.262C315.173 235.262 315.329 235.252 315.479 235.232C315.628 235.213 315.749 235.193 315.84 235.174L315.85 236.971C315.654 237.029 315.426 237.081 315.166 237.127C314.912 237.173 314.619 237.195 314.287 237.195C313.747 237.195 313.268 237.101 312.852 236.912C312.435 236.717 312.109 236.401 311.875 235.965C311.641 235.529 311.523 234.949 311.523 234.227L311.523 223.846L311.523 223.846ZM327.217 237.195C326.436 237.195 325.729 237.068 325.098 236.814C324.473 236.554 323.939 236.193 323.496 235.73C323.06 235.268 322.725 234.725 322.49 234.1C322.256 233.475 322.139 232.801 322.139 232.078L322.139 231.688C322.139 230.861 322.259 230.112 322.5 229.441C322.741 228.771 323.076 228.198 323.506 227.723C323.936 227.241 324.443 226.873 325.029 226.619C325.615 226.365 326.25 226.238 326.934 226.238C327.689 226.238 328.35 226.365 328.916 226.619C329.482 226.873 329.951 227.231 330.322 227.693C330.7 228.149 330.98 228.693 331.162 229.324C331.351 229.956 331.445 230.652 331.445 231.414L331.445 232.42L323.281 232.42L323.281 230.73L329.121 230.73L329.121 230.545C329.108 230.122 329.023 229.725 328.867 229.354C328.717 228.982 328.486 228.683 328.174 228.455C327.861 228.227 327.445 228.113 326.924 228.113C326.533 228.113 326.185 228.198 325.879 228.367C325.579 228.53 325.329 228.768 325.127 229.08C324.925 229.393 324.769 229.77 324.658 230.213C324.554 230.649 324.502 231.141 324.502 231.688L324.502 232.078C324.502 232.54 324.564 232.97 324.688 233.367C324.818 233.758 325.007 234.1 325.254 234.393C325.501 234.686 325.801 234.917 326.152 235.086C326.504 235.249 326.904 235.33 327.354 235.33C327.92 235.33 328.424 235.216 328.867 234.988C329.31 234.76 329.694 234.438 330.02 234.021L331.26 235.223C331.032 235.555 330.736 235.874 330.371 236.18C330.007 236.479 329.561 236.723 329.033 236.912C328.512 237.101 327.907 237.195 327.217 237.195L327.217 237.195ZM336.465 237L334.111 237L334.111 225.418C334.111 224.63 334.258 223.969 334.551 223.436C334.85 222.895 335.277 222.488 335.83 222.215C336.383 221.935 337.038 221.795 337.793 221.795C338.027 221.795 338.258 221.811 338.486 221.844C338.714 221.87 338.936 221.912 339.15 221.971L339.092 223.787C338.962 223.755 338.818 223.732 338.662 223.719C338.512 223.706 338.35 223.699 338.174 223.699C337.816 223.699 337.507 223.768 337.246 223.904C336.992 224.035 336.797 224.227 336.66 224.48C336.53 224.734 336.465 225.047 336.465 225.418L336.465 237L336.465 237ZM338.643 226.434L338.643 228.152L332.49 228.152L332.49 226.434L338.643 226.434L338.643 226.434ZM343.535 237L341.182 237L341.182 225.418C341.182 224.63 341.328 223.969 341.621 223.436C341.921 222.895 342.347 222.488 342.9 222.215C343.454 221.935 344.108 221.795 344.863 221.795C345.098 221.795 345.329 221.811 345.557 221.844C345.785 221.87 346.006 221.912 346.221 221.971L346.162 223.787C346.032 223.755 345.889 223.732 345.732 223.719C345.583 223.706 345.42 223.699 345.244 223.699C344.886 223.699 344.577 223.768 344.316 223.904C344.062 224.035 343.867 224.227 343.73 224.48C343.6 224.734 343.535 225.047 343.535 225.418L343.535 237L343.535 237ZM345.713 226.434L345.713 228.152L339.561 228.152L339.561 226.434L345.713 226.434L345.713 226.434ZM351.846 237.195C351.064 237.195 350.358 237.068 349.727 236.814C349.102 236.554 348.568 236.193 348.125 235.73C347.689 235.268 347.354 234.725 347.119 234.1C346.885 233.475 346.768 232.801 346.768 232.078L346.768 231.688C346.768 230.861 346.888 230.112 347.129 229.441C347.37 228.771 347.705 228.198 348.135 227.723C348.564 227.241 349.072 226.873 349.658 226.619C350.244 226.365 350.879 226.238 351.562 226.238C352.318 226.238 352.979 226.365 353.545 226.619C354.111 226.873 354.58 227.231 354.951 227.693C355.329 228.149 355.609 228.693 355.791 229.324C355.98 229.956 356.074 230.652 356.074 231.414L356.074 232.42L347.91 232.42L347.91 230.73L353.75 230.73L353.75 230.545C353.737 230.122 353.652 229.725 353.496 229.354C353.346 228.982 353.115 228.683 352.803 228.455C352.49 228.227 352.074 228.113 351.553 228.113C351.162 228.113 350.814 228.198 350.508 228.367C350.208 228.53 349.958 228.768 349.756 229.08C349.554 229.393 349.398 229.77 349.287 230.213C349.183 230.649 349.131 231.141 349.131 231.688L349.131 232.078C349.131 232.54 349.193 232.97 349.316 233.367C349.447 233.758 349.635 234.1 349.883 234.393C350.13 234.686 350.43 234.917 350.781 235.086C351.133 235.249 351.533 235.33 351.982 235.33C352.549 235.33 353.053 235.216 353.496 234.988C353.939 234.76 354.323 234.438 354.648 234.021L355.889 235.223C355.661 235.555 355.365 235.874 355 236.18C354.635 236.479 354.189 236.723 353.662 236.912C353.141 237.101 352.536 237.195 351.846 237.195L351.846 237.195ZM362.227 235.32C362.611 235.32 362.956 235.245 363.262 235.096C363.574 234.939 363.825 234.725 364.014 234.451C364.209 234.178 364.316 233.862 364.336 233.504L366.553 233.504C366.54 234.188 366.338 234.809 365.947 235.369C365.557 235.929 365.039 236.375 364.395 236.707C363.75 237.033 363.037 237.195 362.256 237.195C361.449 237.195 360.745 237.059 360.146 236.785C359.548 236.505 359.049 236.121 358.652 235.633C358.255 235.145 357.956 234.581 357.754 233.943C357.559 233.305 357.461 232.622 357.461 231.893L357.461 231.551C357.461 230.822 357.559 230.138 357.754 229.5C357.956 228.855 358.255 228.289 358.652 227.801C359.049 227.312 359.548 226.932 360.146 226.658C360.745 226.378 361.445 226.238 362.246 226.238C363.092 226.238 363.835 226.408 364.473 226.746C365.111 227.078 365.612 227.544 365.977 228.143C366.348 228.735 366.54 229.425 366.553 230.213L364.336 230.213C364.316 229.822 364.219 229.471 364.043 229.158C363.874 228.839 363.633 228.585 363.32 228.396C363.014 228.208 362.646 228.113 362.217 228.113C361.742 228.113 361.348 228.211 361.035 228.406C360.723 228.595 360.479 228.855 360.303 229.188C360.127 229.513 360 229.881 359.922 230.291C359.85 230.695 359.814 231.115 359.814 231.551L359.814 231.893C359.814 232.329 359.85 232.752 359.922 233.162C359.993 233.572 360.117 233.94 360.293 234.266C360.475 234.585 360.723 234.842 361.035 235.037C361.348 235.226 361.745 235.32 362.227 235.32L362.227 235.32ZM373.203 226.434L373.203 228.152L367.246 228.152L367.246 226.434L373.203 226.434L373.203 226.434ZM368.965 223.846L371.318 223.846L371.318 234.08C371.318 234.406 371.364 234.656 371.455 234.832C371.553 235.001 371.686 235.115 371.855 235.174C372.025 235.232 372.223 235.262 372.451 235.262C372.614 235.262 372.77 235.252 372.92 235.232C373.07 235.213 373.19 235.193 373.281 235.174L373.291 236.971C373.096 237.029 372.868 237.081 372.607 237.127C372.354 237.173 372.061 237.195 371.729 237.195C371.188 237.195 370.71 237.101 370.293 236.912C369.876 236.717 369.551 236.401 369.316 235.965C369.082 235.529 368.965 234.949 368.965 234.227L368.965 223.846L368.965 223.846ZM377.539 226.434L377.539 237L375.176 237L375.176 226.434L377.539 226.434L377.539 226.434ZM375.02 223.66C375.02 223.302 375.137 223.006 375.371 222.771C375.612 222.531 375.944 222.41 376.367 222.41C376.784 222.41 377.113 222.531 377.354 222.771C377.594 223.006 377.715 223.302 377.715 223.66C377.715 224.012 377.594 224.305 377.354 224.539C377.113 224.773 376.784 224.891 376.367 224.891C375.944 224.891 375.612 224.773 375.371 224.539C375.137 224.305 375.02 224.012 375.02 223.66L375.02 223.66ZM383.555 235.135L386.143 226.434L388.584 226.434L384.912 237L383.389 237L383.555 235.135L383.555 235.135ZM381.572 226.434L384.209 235.174L384.336 237L382.812 237L379.121 226.434L381.572 226.434L381.572 226.434ZM394.561 237.195C393.779 237.195 393.073 237.068 392.441 236.814C391.816 236.554 391.283 236.193 390.84 235.73C390.404 235.268 390.068 234.725 389.834 234.1C389.6 233.475 389.482 232.801 389.482 232.078L389.482 231.688C389.482 230.861 389.603 230.112 389.844 229.441C390.085 228.771 390.42 228.198 390.85 227.723C391.279 227.241 391.787 226.873 392.373 226.619C392.959 226.365 393.594 226.238 394.277 226.238C395.033 226.238 395.693 226.365 396.26 226.619C396.826 226.873 397.295 227.231 397.666 227.693C398.044 228.149 398.324 228.693 398.506 229.324C398.695 229.956 398.789 230.652 398.789 231.414L398.789 232.42L390.625 232.42L390.625 230.73L396.465 230.73L396.465 230.545C396.452 230.122 396.367 229.725 396.211 229.354C396.061 228.982 395.83 228.683 395.518 228.455C395.205 228.227 394.788 228.113 394.268 228.113C393.877 228.113 393.529 228.198 393.223 228.367C392.923 228.53 392.673 228.768 392.471 229.08C392.269 229.393 392.113 229.77 392.002 230.213C391.898 230.649 391.846 231.141 391.846 231.688L391.846 232.078C391.846 232.54 391.908 232.97 392.031 233.367C392.161 233.758 392.35 234.1 392.598 234.393C392.845 234.686 393.145 234.917 393.496 235.086C393.848 235.249 394.248 235.33 394.697 235.33C395.264 235.33 395.768 235.216 396.211 234.988C396.654 234.76 397.038 234.438 397.363 234.021L398.604 235.223C398.376 235.555 398.079 235.874 397.715 236.18C397.35 236.479 396.904 236.723 396.377 236.912C395.856 237.101 395.251 237.195 394.561 237.195L394.561 237.195Z" id="Shape" fill="#000000" fill-rule="evenodd" stroke="none" />
          <path d="M450.267 315.344L250.596 315.344C246.725 315.344 243.012 313.587 240.275 310.461C237.538 307.334 236 303.094 236 298.672C236 294.25 237.538 290.01 240.275 286.883C243.012 283.757 246.725 282 250.596 282L450.267 282C454.138 282 457.851 283.757 460.588 286.883C463.325 290.01 464.863 294.25 464.863 298.672C464.863 303.094 463.325 307.334 460.588 310.461C457.851 313.587 454.138 315.344 450.267 315.344L450.267 315.344ZM250.596 284.668C247.344 284.668 244.226 286.143 241.926 288.769C239.627 291.396 238.335 294.958 238.335 298.672C238.335 302.386 239.627 305.948 241.926 308.575C244.226 311.201 247.344 312.676 250.596 312.676L450.267 312.676C453.519 312.676 456.637 311.201 458.936 308.575C461.236 305.948 462.527 302.386 462.527 298.672C462.527 294.958 461.236 291.396 458.936 288.769C456.637 286.143 453.519 284.668 450.267 284.668L250.596 284.668L250.596 284.668Z" id="Shape" fill="#3F3D56" fill-rule="evenodd" stroke="none" />
          <path d="M466.834 323.449C479.998 323.449 490.669 311.26 490.669 296.225C490.669 281.189 479.998 269 466.834 269C453.671 269 443 281.189 443 296.225C443 311.26 453.671 323.449 466.834 323.449L466.834 323.449Z" id="Shape" fill="#D97706" stroke="none" />
          <path d="M462.153 309.348C461.742 309.348 461.336 309.238 460.968 309.028C460.6 308.818 460.279 308.512 460.033 308.136L453.53 298.233C453.108 297.591 452.927 296.783 453.027 295.988C453.126 295.193 453.498 294.475 454.061 293.993C454.623 293.512 455.33 293.305 456.026 293.418C456.722 293.532 457.35 293.957 457.772 294.599L462.026 301.078L472.952 282.358C473.34 281.688 473.945 281.221 474.634 281.061C475.323 280.901 476.04 281.059 476.626 281.503C477.213 281.946 477.621 282.637 477.761 283.424C477.902 284.211 477.763 285.029 477.375 285.699L477.364 285.717L464.359 307.999C464.124 308.402 463.808 308.735 463.437 308.969C463.066 309.204 462.651 309.333 462.227 309.347L462.153 309.348L462.153 309.348Z" id="Shape" fill="#000000" stroke="none" />
          <path d="M282.752 304.057L282.752 306L275.203 306L275.203 304.057L282.752 304.057L282.752 304.057ZM275.896 291.781L275.896 306L273.445 306L273.445 291.781L275.896 291.781L275.896 291.781ZM281.766 297.719L281.766 299.633L275.203 299.633L275.203 297.719L281.766 297.719L281.766 297.719ZM282.703 291.781L282.703 293.734L275.203 293.734L275.203 291.781L282.703 291.781L282.703 291.781ZM290.477 303.881L290.477 298.842C290.477 298.464 290.408 298.139 290.271 297.865C290.135 297.592 289.926 297.38 289.646 297.23C289.373 297.081 289.028 297.006 288.611 297.006C288.227 297.006 287.895 297.071 287.615 297.201C287.335 297.331 287.117 297.507 286.961 297.729C286.805 297.95 286.727 298.201 286.727 298.48L284.383 298.48C284.383 298.064 284.484 297.66 284.686 297.27C284.887 296.879 285.18 296.531 285.564 296.225C285.949 295.919 286.408 295.678 286.941 295.502C287.475 295.326 288.074 295.238 288.738 295.238C289.533 295.238 290.236 295.372 290.848 295.639C291.466 295.906 291.951 296.309 292.303 296.85C292.661 297.383 292.84 298.054 292.84 298.861L292.84 303.559C292.84 304.04 292.872 304.473 292.938 304.857C293.009 305.235 293.11 305.564 293.24 305.844L293.24 306L290.828 306C290.717 305.746 290.63 305.424 290.564 305.033C290.506 304.636 290.477 304.252 290.477 303.881L290.477 303.881ZM290.818 299.574L290.838 301.029L289.148 301.029C288.712 301.029 288.328 301.072 287.996 301.156C287.664 301.234 287.387 301.352 287.166 301.508C286.945 301.664 286.779 301.853 286.668 302.074C286.557 302.296 286.502 302.546 286.502 302.826C286.502 303.106 286.567 303.363 286.697 303.598C286.827 303.826 287.016 304.005 287.264 304.135C287.518 304.265 287.824 304.33 288.182 304.33C288.663 304.33 289.083 304.232 289.441 304.037C289.806 303.835 290.092 303.591 290.301 303.305C290.509 303.012 290.62 302.735 290.633 302.475L291.395 303.52C291.316 303.786 291.183 304.073 290.994 304.379C290.805 304.685 290.558 304.978 290.252 305.258C289.952 305.531 289.591 305.756 289.168 305.932C288.751 306.107 288.27 306.195 287.723 306.195C287.033 306.195 286.417 306.059 285.877 305.785C285.337 305.505 284.913 305.131 284.607 304.662C284.301 304.187 284.148 303.65 284.148 303.051C284.148 302.491 284.253 301.996 284.461 301.566C284.676 301.13 284.988 300.766 285.398 300.473C285.815 300.18 286.323 299.958 286.922 299.809C287.521 299.652 288.204 299.574 288.973 299.574L290.818 299.574L290.818 299.574ZM301.229 303.139C301.229 302.904 301.17 302.693 301.053 302.504C300.936 302.309 300.711 302.133 300.379 301.977C300.053 301.82 299.572 301.677 298.934 301.547C298.374 301.423 297.859 301.277 297.391 301.107C296.928 300.932 296.531 300.72 296.199 300.473C295.867 300.225 295.61 299.932 295.428 299.594C295.245 299.255 295.154 298.865 295.154 298.422C295.154 297.992 295.249 297.585 295.438 297.201C295.626 296.817 295.896 296.479 296.248 296.186C296.6 295.893 297.026 295.661 297.527 295.492C298.035 295.323 298.602 295.238 299.227 295.238C300.112 295.238 300.87 295.388 301.502 295.688C302.14 295.98 302.628 296.381 302.967 296.889C303.305 297.39 303.475 297.956 303.475 298.588L301.121 298.588C301.121 298.308 301.049 298.048 300.906 297.807C300.77 297.559 300.561 297.361 300.281 297.211C300.001 297.055 299.65 296.977 299.227 296.977C298.823 296.977 298.488 297.042 298.221 297.172C297.96 297.296 297.765 297.458 297.635 297.66C297.511 297.862 297.449 298.083 297.449 298.324C297.449 298.5 297.482 298.66 297.547 298.803C297.618 298.939 297.736 299.066 297.898 299.184C298.061 299.294 298.283 299.398 298.562 299.496C298.849 299.594 299.207 299.688 299.637 299.779C300.444 299.949 301.137 300.167 301.717 300.434C302.303 300.694 302.752 301.033 303.064 301.449C303.377 301.859 303.533 302.38 303.533 303.012C303.533 303.48 303.432 303.91 303.23 304.301C303.035 304.685 302.749 305.02 302.371 305.307C301.993 305.587 301.541 305.805 301.014 305.961C300.493 306.117 299.907 306.195 299.256 306.195C298.299 306.195 297.488 306.026 296.824 305.688C296.16 305.342 295.656 304.903 295.311 304.369C294.972 303.829 294.803 303.269 294.803 302.689L297.078 302.689C297.104 303.126 297.225 303.474 297.439 303.734C297.661 303.988 297.934 304.174 298.26 304.291C298.592 304.402 298.934 304.457 299.285 304.457C299.708 304.457 300.063 304.402 300.35 304.291C300.636 304.174 300.854 304.018 301.004 303.822C301.154 303.62 301.229 303.393 301.229 303.139L301.229 303.139ZM308.66 304.848L311.531 295.434L314.051 295.434L309.812 307.611C309.715 307.872 309.588 308.155 309.432 308.461C309.275 308.767 309.07 309.057 308.816 309.33C308.569 309.61 308.26 309.835 307.889 310.004C307.518 310.18 307.068 310.268 306.541 310.268C306.333 310.268 306.131 310.248 305.936 310.209C305.747 310.176 305.568 310.141 305.398 310.102L305.389 308.305C305.454 308.311 305.532 308.318 305.623 308.324C305.721 308.331 305.799 308.334 305.857 308.334C306.248 308.334 306.574 308.285 306.834 308.188C307.094 308.096 307.306 307.947 307.469 307.738C307.638 307.53 307.781 307.25 307.898 306.898L308.66 304.848L308.66 304.848ZM307.039 295.434L309.549 303.344L309.969 305.824L308.338 306.244L304.5 295.434L307.039 295.434L307.039 295.434ZM325.223 295.434L325.223 297.152L319.266 297.152L319.266 295.434L325.223 295.434L325.223 295.434ZM320.984 292.846L323.338 292.846L323.338 303.08C323.338 303.406 323.383 303.656 323.475 303.832C323.572 304.001 323.706 304.115 323.875 304.174C324.044 304.232 324.243 304.262 324.471 304.262C324.633 304.262 324.79 304.252 324.939 304.232C325.089 304.213 325.21 304.193 325.301 304.174L325.311 305.971C325.115 306.029 324.887 306.081 324.627 306.127C324.373 306.173 324.08 306.195 323.748 306.195C323.208 306.195 322.729 306.101 322.312 305.912C321.896 305.717 321.57 305.401 321.336 304.965C321.102 304.529 320.984 303.949 320.984 303.227L320.984 292.846L320.984 292.846ZM326.355 300.834L326.355 300.609C326.355 299.848 326.466 299.141 326.688 298.49C326.909 297.833 327.228 297.263 327.645 296.781C328.068 296.293 328.582 295.915 329.188 295.648C329.799 295.375 330.49 295.238 331.258 295.238C332.033 295.238 332.723 295.375 333.328 295.648C333.94 295.915 334.458 296.293 334.881 296.781C335.304 297.263 335.626 297.833 335.848 298.49C336.069 299.141 336.18 299.848 336.18 300.609L336.18 300.834C336.18 301.596 336.069 302.302 335.848 302.953C335.626 303.604 335.304 304.174 334.881 304.662C334.458 305.144 333.943 305.521 333.338 305.795C332.732 306.062 332.046 306.195 331.277 306.195C330.503 306.195 329.809 306.062 329.197 305.795C328.592 305.521 328.077 305.144 327.654 304.662C327.231 304.174 326.909 303.604 326.688 302.953C326.466 302.302 326.355 301.596 326.355 300.834L326.355 300.834ZM328.709 300.609L328.709 300.834C328.709 301.309 328.758 301.758 328.855 302.182C328.953 302.605 329.106 302.976 329.314 303.295C329.523 303.614 329.79 303.865 330.115 304.047C330.441 304.229 330.828 304.32 331.277 304.32C331.714 304.32 332.091 304.229 332.41 304.047C332.736 303.865 333.003 303.614 333.211 303.295C333.419 302.976 333.572 302.605 333.67 302.182C333.774 301.758 333.826 301.309 333.826 300.834L333.826 300.609C333.826 300.141 333.774 299.698 333.67 299.281C333.572 298.858 333.416 298.484 333.201 298.158C332.993 297.833 332.726 297.579 332.4 297.396C332.081 297.208 331.701 297.113 331.258 297.113C330.815 297.113 330.431 297.208 330.105 297.396C329.786 297.579 329.523 297.833 329.314 298.158C329.106 298.484 328.953 298.858 328.855 299.281C328.758 299.698 328.709 300.141 328.709 300.609L328.709 300.609ZM345.486 297.582L345.486 306L343.133 306L343.133 295.434L345.35 295.434L345.486 297.582L345.486 297.582ZM345.105 300.326L344.305 300.316C344.305 299.587 344.396 298.913 344.578 298.295C344.76 297.676 345.027 297.139 345.379 296.684C345.73 296.221 346.167 295.867 346.688 295.619C347.215 295.365 347.824 295.238 348.514 295.238C348.995 295.238 349.435 295.31 349.832 295.453C350.236 295.59 350.584 295.808 350.877 296.107C351.176 296.407 351.404 296.791 351.561 297.26C351.723 297.729 351.805 298.295 351.805 298.959L351.805 306L349.451 306L349.451 299.164C349.451 298.65 349.373 298.246 349.217 297.953C349.067 297.66 348.849 297.452 348.562 297.328C348.283 297.198 347.947 297.133 347.557 297.133C347.114 297.133 346.736 297.217 346.424 297.387C346.118 297.556 345.867 297.787 345.672 298.08C345.477 298.373 345.333 298.712 345.242 299.096C345.151 299.48 345.105 299.89 345.105 300.326L345.105 300.326ZM351.658 299.701L350.555 299.945C350.555 299.307 350.643 298.705 350.818 298.139C351.001 297.566 351.264 297.064 351.609 296.635C351.961 296.199 352.394 295.857 352.908 295.609C353.423 295.362 354.012 295.238 354.676 295.238C355.216 295.238 355.698 295.313 356.121 295.463C356.551 295.606 356.915 295.834 357.215 296.146C357.514 296.459 357.742 296.866 357.898 297.367C358.055 297.862 358.133 298.461 358.133 299.164L358.133 306L355.77 306L355.77 299.154C355.77 298.62 355.691 298.207 355.535 297.914C355.385 297.621 355.171 297.419 354.891 297.309C354.611 297.191 354.275 297.133 353.885 297.133C353.52 297.133 353.198 297.201 352.918 297.338C352.645 297.468 352.413 297.654 352.225 297.895C352.036 298.129 351.893 298.399 351.795 298.705C351.704 299.011 351.658 299.343 351.658 299.701L351.658 299.701ZM366.512 303.881L366.512 298.842C366.512 298.464 366.443 298.139 366.307 297.865C366.17 297.592 365.962 297.38 365.682 297.23C365.408 297.081 365.063 297.006 364.646 297.006C364.262 297.006 363.93 297.071 363.65 297.201C363.37 297.331 363.152 297.507 362.996 297.729C362.84 297.95 362.762 298.201 362.762 298.48L360.418 298.48C360.418 298.064 360.519 297.66 360.721 297.27C360.923 296.879 361.215 296.531 361.6 296.225C361.984 295.919 362.443 295.678 362.977 295.502C363.51 295.326 364.109 295.238 364.773 295.238C365.568 295.238 366.271 295.372 366.883 295.639C367.501 295.906 367.986 296.309 368.338 296.85C368.696 297.383 368.875 298.054 368.875 298.861L368.875 303.559C368.875 304.04 368.908 304.473 368.973 304.857C369.044 305.235 369.145 305.564 369.275 305.844L369.275 306L366.863 306C366.753 305.746 366.665 305.424 366.6 305.033C366.541 304.636 366.512 304.252 366.512 303.881L366.512 303.881ZM366.854 299.574L366.873 301.029L365.184 301.029C364.747 301.029 364.363 301.072 364.031 301.156C363.699 301.234 363.423 301.352 363.201 301.508C362.98 301.664 362.814 301.853 362.703 302.074C362.592 302.296 362.537 302.546 362.537 302.826C362.537 303.106 362.602 303.363 362.732 303.598C362.863 303.826 363.051 304.005 363.299 304.135C363.553 304.265 363.859 304.33 364.217 304.33C364.699 304.33 365.118 304.232 365.477 304.037C365.841 303.835 366.128 303.591 366.336 303.305C366.544 303.012 366.655 302.735 366.668 302.475L367.43 303.52C367.352 303.786 367.218 304.073 367.029 304.379C366.84 304.685 366.593 304.978 366.287 305.258C365.988 305.531 365.626 305.756 365.203 305.932C364.786 306.107 364.305 306.195 363.758 306.195C363.068 306.195 362.452 306.059 361.912 305.785C361.372 305.505 360.949 305.131 360.643 304.662C360.337 304.187 360.184 303.65 360.184 303.051C360.184 302.491 360.288 301.996 360.496 301.566C360.711 301.13 361.023 300.766 361.434 300.473C361.85 300.18 362.358 299.958 362.957 299.809C363.556 299.652 364.24 299.574 365.008 299.574L366.854 299.574L366.854 299.574ZM373.67 297.689L373.67 306L371.316 306L371.316 295.434L373.533 295.434L373.67 297.689L373.67 297.689ZM373.25 300.326L372.488 300.316C372.495 299.568 372.599 298.881 372.801 298.256C373.009 297.631 373.296 297.094 373.66 296.645C374.031 296.195 374.474 295.85 374.988 295.609C375.503 295.362 376.076 295.238 376.707 295.238C377.215 295.238 377.674 295.31 378.084 295.453C378.501 295.59 378.855 295.814 379.148 296.127C379.448 296.439 379.676 296.846 379.832 297.348C379.988 297.842 380.066 298.451 380.066 299.174L380.066 306L377.703 306L377.703 299.164C377.703 298.656 377.628 298.256 377.479 297.963C377.335 297.663 377.124 297.452 376.844 297.328C376.57 297.198 376.229 297.133 375.818 297.133C375.415 297.133 375.053 297.217 374.734 297.387C374.415 297.556 374.145 297.787 373.924 298.08C373.709 298.373 373.543 298.712 373.426 299.096C373.309 299.48 373.25 299.89 373.25 300.326L373.25 300.326ZM388.426 303.881L388.426 298.842C388.426 298.464 388.357 298.139 388.221 297.865C388.084 297.592 387.876 297.38 387.596 297.23C387.322 297.081 386.977 297.006 386.561 297.006C386.176 297.006 385.844 297.071 385.564 297.201C385.285 297.331 385.066 297.507 384.91 297.729C384.754 297.95 384.676 298.201 384.676 298.48L382.332 298.48C382.332 298.064 382.433 297.66 382.635 297.27C382.837 296.879 383.13 296.531 383.514 296.225C383.898 295.919 384.357 295.678 384.891 295.502C385.424 295.326 386.023 295.238 386.688 295.238C387.482 295.238 388.185 295.372 388.797 295.639C389.415 295.906 389.9 296.309 390.252 296.85C390.61 297.383 390.789 298.054 390.789 298.861L390.789 303.559C390.789 304.04 390.822 304.473 390.887 304.857C390.958 305.235 391.059 305.564 391.189 305.844L391.189 306L388.777 306C388.667 305.746 388.579 305.424 388.514 305.033C388.455 304.636 388.426 304.252 388.426 303.881L388.426 303.881ZM388.768 299.574L388.787 301.029L387.098 301.029C386.661 301.029 386.277 301.072 385.945 301.156C385.613 301.234 385.337 301.352 385.115 301.508C384.894 301.664 384.728 301.853 384.617 302.074C384.507 302.296 384.451 302.546 384.451 302.826C384.451 303.106 384.516 303.363 384.646 303.598C384.777 303.826 384.965 304.005 385.213 304.135C385.467 304.265 385.773 304.33 386.131 304.33C386.613 304.33 387.033 304.232 387.391 304.037C387.755 303.835 388.042 303.591 388.25 303.305C388.458 303.012 388.569 302.735 388.582 302.475L389.344 303.52C389.266 303.786 389.132 304.073 388.943 304.379C388.755 304.685 388.507 304.978 388.201 305.258C387.902 305.531 387.54 305.756 387.117 305.932C386.701 306.107 386.219 306.195 385.672 306.195C384.982 306.195 384.367 306.059 383.826 305.785C383.286 305.505 382.863 305.131 382.557 304.662C382.251 304.187 382.098 303.65 382.098 303.051C382.098 302.491 382.202 301.996 382.41 301.566C382.625 301.13 382.938 300.766 383.348 300.473C383.764 300.18 384.272 299.958 384.871 299.809C385.47 299.652 386.154 299.574 386.922 299.574L388.768 299.574L388.768 299.574ZM400.018 295.434L402.156 295.434L402.156 305.707C402.156 306.658 401.954 307.465 401.551 308.129C401.147 308.793 400.584 309.298 399.861 309.643C399.139 309.994 398.302 310.17 397.352 310.17C396.948 310.17 396.499 310.111 396.004 309.994C395.516 309.877 395.04 309.688 394.578 309.428C394.122 309.174 393.742 308.839 393.436 308.422L394.539 307.035C394.917 307.484 395.333 307.813 395.789 308.021C396.245 308.23 396.723 308.334 397.225 308.334C397.765 308.334 398.224 308.233 398.602 308.031C398.986 307.836 399.282 307.546 399.49 307.162C399.699 306.778 399.803 306.309 399.803 305.756L399.803 297.826L400.018 295.434L400.018 295.434ZM392.84 300.834L392.84 300.629C392.84 299.828 392.938 299.099 393.133 298.441C393.328 297.777 393.608 297.208 393.973 296.732C394.337 296.251 394.78 295.883 395.301 295.629C395.822 295.368 396.411 295.238 397.068 295.238C397.752 295.238 398.335 295.362 398.816 295.609C399.305 295.857 399.712 296.212 400.037 296.674C400.363 297.13 400.617 297.676 400.799 298.314C400.988 298.946 401.128 299.649 401.219 300.424L401.219 301.078C401.134 301.833 400.991 302.523 400.789 303.148C400.587 303.773 400.32 304.314 399.988 304.77C399.656 305.225 399.246 305.577 398.758 305.824C398.276 306.072 397.706 306.195 397.049 306.195C396.404 306.195 395.822 306.062 395.301 305.795C394.786 305.528 394.344 305.154 393.973 304.672C393.608 304.19 393.328 303.624 393.133 302.973C392.938 302.315 392.84 301.602 392.84 300.834L392.84 300.834ZM395.193 300.629L395.193 300.834C395.193 301.316 395.239 301.765 395.33 302.182C395.428 302.598 395.574 302.966 395.77 303.285C395.971 303.598 396.225 303.845 396.531 304.027C396.844 304.203 397.212 304.291 397.635 304.291C398.188 304.291 398.641 304.174 398.992 303.939C399.35 303.705 399.624 303.389 399.812 302.992C400.008 302.589 400.145 302.139 400.223 301.645L400.223 299.877C400.184 299.493 400.102 299.135 399.979 298.803C399.861 298.471 399.702 298.181 399.5 297.934C399.298 297.68 399.044 297.484 398.738 297.348C398.432 297.204 398.071 297.133 397.654 297.133C397.231 297.133 396.863 297.224 396.551 297.406C396.238 297.589 395.981 297.839 395.779 298.158C395.584 298.477 395.438 298.848 395.34 299.271C395.242 299.695 395.193 300.147 395.193 300.629L395.193 300.629ZM409.256 306.195C408.475 306.195 407.768 306.068 407.137 305.814C406.512 305.554 405.978 305.193 405.535 304.73C405.099 304.268 404.764 303.725 404.529 303.1C404.295 302.475 404.178 301.801 404.178 301.078L404.178 300.688C404.178 299.861 404.298 299.112 404.539 298.441C404.78 297.771 405.115 297.198 405.545 296.723C405.975 296.241 406.482 295.873 407.068 295.619C407.654 295.365 408.289 295.238 408.973 295.238C409.728 295.238 410.389 295.365 410.955 295.619C411.521 295.873 411.99 296.231 412.361 296.693C412.739 297.149 413.019 297.693 413.201 298.324C413.39 298.956 413.484 299.652 413.484 300.414L413.484 301.42L405.32 301.42L405.32 299.73L411.16 299.73L411.16 299.545C411.147 299.122 411.062 298.725 410.906 298.354C410.757 297.982 410.525 297.683 410.213 297.455C409.9 297.227 409.484 297.113 408.963 297.113C408.572 297.113 408.224 297.198 407.918 297.367C407.618 297.53 407.368 297.768 407.166 298.08C406.964 298.393 406.808 298.77 406.697 299.213C406.593 299.649 406.541 300.141 406.541 300.688L406.541 301.078C406.541 301.54 406.603 301.97 406.727 302.367C406.857 302.758 407.046 303.1 407.293 303.393C407.54 303.686 407.84 303.917 408.191 304.086C408.543 304.249 408.943 304.33 409.393 304.33C409.959 304.33 410.464 304.216 410.906 303.988C411.349 303.76 411.733 303.438 412.059 303.021L413.299 304.223C413.071 304.555 412.775 304.874 412.41 305.18C412.046 305.479 411.6 305.723 411.072 305.912C410.551 306.101 409.946 306.195 409.256 306.195L409.256 306.195Z" id="Shape" fill="#000000" fill-rule="evenodd" stroke="none" />
          <path d="M446.441 384L192.559 384C187.637 384 182.916 382.262 179.436 379.167C175.955 376.073 174 371.876 174 367.5C174 363.124 175.955 358.927 179.436 355.833C182.916 352.738 187.637 351 192.559 351L446.441 351C451.363 351 456.084 352.738 459.564 355.833C463.045 358.927 465 363.124 465 367.5C465 371.876 463.045 376.073 459.564 379.167C456.084 382.262 451.363 384 446.441 384L446.441 384ZM192.559 353.64C188.424 353.64 184.459 355.1 181.535 357.699C178.612 360.299 176.969 363.824 176.969 367.5C176.969 371.176 178.612 374.701 181.535 377.301C184.459 379.9 188.424 381.36 192.559 381.36L446.441 381.36C450.576 381.36 454.541 379.9 457.465 377.301C460.388 374.701 462.031 371.176 462.031 367.5C462.031 363.824 460.388 360.299 457.465 357.699C454.541 355.1 450.576 353.64 446.441 353.64L192.559 353.64L192.559 353.64Z" id="Shape" fill="#3F3D56" fill-rule="evenodd" stroke="none" />
          <path d="M466.834 392.449C479.998 392.449 490.669 380.26 490.669 365.225C490.669 350.189 479.998 338 466.834 338C453.671 338 443 350.189 443 365.225C443 380.26 453.671 392.449 466.834 392.449L466.834 392.449Z" id="Shape" fill="#D97706" stroke="none" />
          <path d="M462.153 378.348C461.742 378.348 461.336 378.238 460.968 378.028C460.6 377.818 460.279 377.512 460.033 377.136L453.53 367.233C453.108 366.591 452.927 365.783 453.027 364.988C453.126 364.193 453.498 363.475 454.061 362.993C454.623 362.512 455.33 362.305 456.026 362.418C456.722 362.532 457.35 362.957 457.772 363.599L462.026 370.078L472.952 351.358C473.34 350.688 473.945 350.221 474.634 350.061C475.323 349.901 476.04 350.059 476.626 350.503C477.213 350.946 477.621 351.637 477.761 352.424C477.902 353.211 477.763 354.029 477.375 354.699L477.364 354.717L464.359 376.999C464.124 377.402 463.808 377.735 463.437 377.969C463.066 378.204 462.651 378.333 462.227 378.347L462.153 378.348L462.153 378.348Z" id="Shape" fill="#000000" stroke="none" />
          <path d="M195.926 371.338C195.926 371.045 195.88 370.785 195.789 370.557C195.704 370.329 195.551 370.12 195.33 369.932C195.109 369.743 194.796 369.561 194.393 369.385C193.995 369.202 193.488 369.017 192.869 368.828C192.192 368.62 191.567 368.389 190.994 368.135C190.428 367.874 189.933 367.575 189.51 367.236C189.087 366.891 188.758 366.497 188.523 366.055C188.289 365.605 188.172 365.088 188.172 364.502C188.172 363.923 188.292 363.395 188.533 362.92C188.781 362.445 189.129 362.035 189.578 361.689C190.034 361.338 190.571 361.068 191.189 360.879C191.808 360.684 192.492 360.586 193.24 360.586C194.295 360.586 195.203 360.781 195.965 361.172C196.733 361.562 197.322 362.087 197.732 362.744C198.149 363.402 198.357 364.128 198.357 364.922L195.926 364.922C195.926 364.453 195.825 364.04 195.623 363.682C195.428 363.317 195.128 363.031 194.725 362.822C194.327 362.614 193.823 362.51 193.211 362.51C192.632 362.51 192.15 362.598 191.766 362.773C191.382 362.949 191.095 363.187 190.906 363.486C190.717 363.786 190.623 364.124 190.623 364.502C190.623 364.769 190.685 365.013 190.809 365.234C190.932 365.449 191.121 365.651 191.375 365.84C191.629 366.022 191.948 366.195 192.332 366.357C192.716 366.52 193.169 366.676 193.689 366.826C194.477 367.061 195.164 367.321 195.75 367.607C196.336 367.887 196.824 368.206 197.215 368.564C197.605 368.923 197.898 369.329 198.094 369.785C198.289 370.234 198.387 370.745 198.387 371.318C198.387 371.917 198.266 372.458 198.025 372.939C197.785 373.415 197.439 373.822 196.99 374.16C196.548 374.492 196.014 374.749 195.389 374.932C194.77 375.107 194.08 375.195 193.318 375.195C192.635 375.195 191.961 375.104 191.297 374.922C190.639 374.74 190.04 374.463 189.5 374.092C188.96 373.714 188.53 373.245 188.211 372.686C187.892 372.119 187.732 371.458 187.732 370.703L190.184 370.703C190.184 371.165 190.262 371.559 190.418 371.885C190.581 372.21 190.805 372.477 191.092 372.686C191.378 372.887 191.71 373.037 192.088 373.135C192.472 373.232 192.882 373.281 193.318 373.281C193.891 373.281 194.37 373.2 194.754 373.037C195.145 372.874 195.438 372.646 195.633 372.354C195.828 372.061 195.926 371.722 195.926 371.338L195.926 371.338ZM204.979 375.195C204.197 375.195 203.491 375.068 202.859 374.814C202.234 374.554 201.701 374.193 201.258 373.73C200.822 373.268 200.486 372.725 200.252 372.1C200.018 371.475 199.9 370.801 199.9 370.078L199.9 369.688C199.9 368.861 200.021 368.112 200.262 367.441C200.503 366.771 200.838 366.198 201.268 365.723C201.697 365.241 202.205 364.873 202.791 364.619C203.377 364.365 204.012 364.238 204.695 364.238C205.451 364.238 206.111 364.365 206.678 364.619C207.244 364.873 207.713 365.231 208.084 365.693C208.462 366.149 208.742 366.693 208.924 367.324C209.113 367.956 209.207 368.652 209.207 369.414L209.207 370.42L201.043 370.42L201.043 368.73L206.883 368.73L206.883 368.545C206.87 368.122 206.785 367.725 206.629 367.354C206.479 366.982 206.248 366.683 205.936 366.455C205.623 366.227 205.206 366.113 204.686 366.113C204.295 366.113 203.947 366.198 203.641 366.367C203.341 366.53 203.09 366.768 202.889 367.08C202.687 367.393 202.531 367.77 202.42 368.213C202.316 368.649 202.264 369.141 202.264 369.688L202.264 370.078C202.264 370.54 202.326 370.97 202.449 371.367C202.579 371.758 202.768 372.1 203.016 372.393C203.263 372.686 203.562 372.917 203.914 373.086C204.266 373.249 204.666 373.33 205.115 373.33C205.682 373.33 206.186 373.216 206.629 372.988C207.072 372.76 207.456 372.438 207.781 372.021L209.021 373.223C208.794 373.555 208.497 373.874 208.133 374.18C207.768 374.479 207.322 374.723 206.795 374.912C206.274 375.101 205.669 375.195 204.979 375.195L204.979 375.195ZM217 372.881L217 367.842C217 367.464 216.932 367.139 216.795 366.865C216.658 366.592 216.45 366.38 216.17 366.23C215.896 366.081 215.551 366.006 215.135 366.006C214.751 366.006 214.419 366.071 214.139 366.201C213.859 366.331 213.641 366.507 213.484 366.729C213.328 366.95 213.25 367.201 213.25 367.48L210.906 367.48C210.906 367.064 211.007 366.66 211.209 366.27C211.411 365.879 211.704 365.531 212.088 365.225C212.472 364.919 212.931 364.678 213.465 364.502C213.999 364.326 214.598 364.238 215.262 364.238C216.056 364.238 216.759 364.372 217.371 364.639C217.99 364.906 218.475 365.309 218.826 365.85C219.184 366.383 219.363 367.054 219.363 367.861L219.363 372.559C219.363 373.04 219.396 373.473 219.461 373.857C219.533 374.235 219.633 374.564 219.764 374.844L219.764 375L217.352 375C217.241 374.746 217.153 374.424 217.088 374.033C217.029 373.636 217 373.252 217 372.881L217 372.881ZM217.342 368.574L217.361 370.029L215.672 370.029C215.236 370.029 214.852 370.072 214.52 370.156C214.188 370.234 213.911 370.352 213.689 370.508C213.468 370.664 213.302 370.853 213.191 371.074C213.081 371.296 213.025 371.546 213.025 371.826C213.025 372.106 213.09 372.363 213.221 372.598C213.351 372.826 213.54 373.005 213.787 373.135C214.041 373.265 214.347 373.33 214.705 373.33C215.187 373.33 215.607 373.232 215.965 373.037C216.329 372.835 216.616 372.591 216.824 372.305C217.033 372.012 217.143 371.735 217.156 371.475L217.918 372.52C217.84 372.786 217.706 373.073 217.518 373.379C217.329 373.685 217.081 373.978 216.775 374.258C216.476 374.531 216.115 374.756 215.691 374.932C215.275 375.107 214.793 375.195 214.246 375.195C213.556 375.195 212.941 375.059 212.4 374.785C211.86 374.505 211.437 374.131 211.131 373.662C210.825 373.187 210.672 372.65 210.672 372.051C210.672 371.491 210.776 370.996 210.984 370.566C211.199 370.13 211.512 369.766 211.922 369.473C212.339 369.18 212.846 368.958 213.445 368.809C214.044 368.652 214.728 368.574 215.496 368.574L217.342 368.574L217.342 368.574ZM224.178 366.582L224.178 375L221.824 375L221.824 364.434L224.041 364.434L224.178 366.582L224.178 366.582ZM223.797 369.326L222.996 369.316C222.996 368.587 223.087 367.913 223.27 367.295C223.452 366.676 223.719 366.139 224.07 365.684C224.422 365.221 224.858 364.867 225.379 364.619C225.906 364.365 226.515 364.238 227.205 364.238C227.687 364.238 228.126 364.31 228.523 364.453C228.927 364.59 229.275 364.808 229.568 365.107C229.868 365.407 230.096 365.791 230.252 366.26C230.415 366.729 230.496 367.295 230.496 367.959L230.496 375L228.143 375L228.143 368.164C228.143 367.65 228.064 367.246 227.908 366.953C227.758 366.66 227.54 366.452 227.254 366.328C226.974 366.198 226.639 366.133 226.248 366.133C225.805 366.133 225.428 366.217 225.115 366.387C224.809 366.556 224.559 366.787 224.363 367.08C224.168 367.373 224.025 367.712 223.934 368.096C223.842 368.48 223.797 368.89 223.797 369.326L223.797 369.326ZM230.35 368.701L229.246 368.945C229.246 368.307 229.334 367.705 229.51 367.139C229.692 366.566 229.956 366.064 230.301 365.635C230.652 365.199 231.085 364.857 231.6 364.609C232.114 364.362 232.703 364.238 233.367 364.238C233.908 364.238 234.389 364.313 234.812 364.463C235.242 364.606 235.607 364.834 235.906 365.146C236.206 365.459 236.434 365.866 236.59 366.367C236.746 366.862 236.824 367.461 236.824 368.164L236.824 375L234.461 375L234.461 368.154C234.461 367.62 234.383 367.207 234.227 366.914C234.077 366.621 233.862 366.419 233.582 366.309C233.302 366.191 232.967 366.133 232.576 366.133C232.212 366.133 231.889 366.201 231.609 366.338C231.336 366.468 231.105 366.654 230.916 366.895C230.727 367.129 230.584 367.399 230.486 367.705C230.395 368.011 230.35 368.343 230.35 368.701L230.35 368.701ZM241.766 360L241.766 375L239.402 375L239.402 360L241.766 360L241.766 360ZM249.002 375.195C248.221 375.195 247.514 375.068 246.883 374.814C246.258 374.554 245.724 374.193 245.281 373.73C244.845 373.268 244.51 372.725 244.275 372.1C244.041 371.475 243.924 370.801 243.924 370.078L243.924 369.688C243.924 368.861 244.044 368.112 244.285 367.441C244.526 366.771 244.861 366.198 245.291 365.723C245.721 365.241 246.229 364.873 246.814 364.619C247.4 364.365 248.035 364.238 248.719 364.238C249.474 364.238 250.135 364.365 250.701 364.619C251.268 364.873 251.736 365.231 252.107 365.693C252.485 366.149 252.765 366.693 252.947 367.324C253.136 367.956 253.23 368.652 253.23 369.414L253.23 370.42L245.066 370.42L245.066 368.73L250.906 368.73L250.906 368.545C250.893 368.122 250.809 367.725 250.652 367.354C250.503 366.982 250.271 366.683 249.959 366.455C249.646 366.227 249.23 366.113 248.709 366.113C248.318 366.113 247.97 366.198 247.664 366.367C247.365 366.53 247.114 366.768 246.912 367.08C246.71 367.393 246.554 367.77 246.443 368.213C246.339 368.649 246.287 369.141 246.287 369.688L246.287 370.078C246.287 370.54 246.349 370.97 246.473 371.367C246.603 371.758 246.792 372.1 247.039 372.393C247.286 372.686 247.586 372.917 247.938 373.086C248.289 373.249 248.689 373.33 249.139 373.33C249.705 373.33 250.21 373.216 250.652 372.988C251.095 372.76 251.479 372.438 251.805 372.021L253.045 373.223C252.817 373.555 252.521 373.874 252.156 374.18C251.792 374.479 251.346 374.723 250.818 374.912C250.298 375.101 249.692 375.195 249.002 375.195L249.002 375.195ZM260.994 372.139C260.994 371.904 260.936 371.693 260.818 371.504C260.701 371.309 260.477 371.133 260.145 370.977C259.819 370.82 259.337 370.677 258.699 370.547C258.139 370.423 257.625 370.277 257.156 370.107C256.694 369.932 256.297 369.72 255.965 369.473C255.633 369.225 255.376 368.932 255.193 368.594C255.011 368.255 254.92 367.865 254.92 367.422C254.92 366.992 255.014 366.585 255.203 366.201C255.392 365.817 255.662 365.479 256.014 365.186C256.365 364.893 256.792 364.661 257.293 364.492C257.801 364.323 258.367 364.238 258.992 364.238C259.878 364.238 260.636 364.388 261.268 364.688C261.906 364.98 262.394 365.381 262.732 365.889C263.071 366.39 263.24 366.956 263.24 367.588L260.887 367.588C260.887 367.308 260.815 367.048 260.672 366.807C260.535 366.559 260.327 366.361 260.047 366.211C259.767 366.055 259.415 365.977 258.992 365.977C258.589 365.977 258.253 366.042 257.986 366.172C257.726 366.296 257.531 366.458 257.4 366.66C257.277 366.862 257.215 367.083 257.215 367.324C257.215 367.5 257.247 367.66 257.312 367.803C257.384 367.939 257.501 368.066 257.664 368.184C257.827 368.294 258.048 368.398 258.328 368.496C258.615 368.594 258.973 368.688 259.402 368.779C260.21 368.949 260.903 369.167 261.482 369.434C262.068 369.694 262.518 370.033 262.83 370.449C263.143 370.859 263.299 371.38 263.299 372.012C263.299 372.48 263.198 372.91 262.996 373.301C262.801 373.685 262.514 374.02 262.137 374.307C261.759 374.587 261.307 374.805 260.779 374.961C260.258 375.117 259.673 375.195 259.021 375.195C258.064 375.195 257.254 375.026 256.59 374.688C255.926 374.342 255.421 373.903 255.076 373.369C254.738 372.829 254.568 372.269 254.568 371.689L256.844 371.689C256.87 372.126 256.99 372.474 257.205 372.734C257.426 372.988 257.7 373.174 258.025 373.291C258.357 373.402 258.699 373.457 259.051 373.457C259.474 373.457 259.829 373.402 260.115 373.291C260.402 373.174 260.62 373.018 260.77 372.822C260.919 372.62 260.994 372.393 260.994 372.139L260.994 372.139ZM271.287 372.139C271.287 371.904 271.229 371.693 271.111 371.504C270.994 371.309 270.77 371.133 270.438 370.977C270.112 370.82 269.63 370.677 268.992 370.547C268.432 370.423 267.918 370.277 267.449 370.107C266.987 369.932 266.59 369.72 266.258 369.473C265.926 369.225 265.669 368.932 265.486 368.594C265.304 368.255 265.213 367.865 265.213 367.422C265.213 366.992 265.307 366.585 265.496 366.201C265.685 365.817 265.955 365.479 266.307 365.186C266.658 364.893 267.085 364.661 267.586 364.492C268.094 364.323 268.66 364.238 269.285 364.238C270.171 364.238 270.929 364.388 271.561 364.688C272.199 364.98 272.687 365.381 273.025 365.889C273.364 366.39 273.533 366.956 273.533 367.588L271.18 367.588C271.18 367.308 271.108 367.048 270.965 366.807C270.828 366.559 270.62 366.361 270.34 366.211C270.06 366.055 269.708 365.977 269.285 365.977C268.882 365.977 268.546 366.042 268.279 366.172C268.019 366.296 267.824 366.458 267.693 366.66C267.57 366.862 267.508 367.083 267.508 367.324C267.508 367.5 267.54 367.66 267.605 367.803C267.677 367.939 267.794 368.066 267.957 368.184C268.12 368.294 268.341 368.398 268.621 368.496C268.908 368.594 269.266 368.688 269.695 368.779C270.503 368.949 271.196 369.167 271.775 369.434C272.361 369.694 272.811 370.033 273.123 370.449C273.436 370.859 273.592 371.38 273.592 372.012C273.592 372.48 273.491 372.91 273.289 373.301C273.094 373.685 272.807 374.02 272.43 374.307C272.052 374.587 271.6 374.805 271.072 374.961C270.551 375.117 269.965 375.195 269.314 375.195C268.357 375.195 267.547 375.026 266.883 374.688C266.219 374.342 265.714 373.903 265.369 373.369C265.031 372.829 264.861 372.269 264.861 371.689L267.137 371.689C267.163 372.126 267.283 372.474 267.498 372.734C267.719 372.988 267.993 373.174 268.318 373.291C268.65 373.402 268.992 373.457 269.344 373.457C269.767 373.457 270.122 373.402 270.408 373.291C270.695 373.174 270.913 373.018 271.062 372.822C271.212 372.62 271.287 372.393 271.287 372.139L271.287 372.139ZM286.268 369.697L282.566 369.697L282.566 367.754L286.268 367.754C286.912 367.754 287.433 367.65 287.83 367.441C288.227 367.233 288.517 366.947 288.699 366.582C288.888 366.211 288.982 365.788 288.982 365.312C288.982 364.863 288.888 364.443 288.699 364.053C288.517 363.656 288.227 363.337 287.83 363.096C287.433 362.855 286.912 362.734 286.268 362.734L283.318 362.734L283.318 375L280.867 375L280.867 360.781L286.268 360.781C287.368 360.781 288.302 360.977 289.07 361.367C289.845 361.751 290.434 362.285 290.838 362.969C291.242 363.646 291.443 364.421 291.443 365.293C291.443 366.211 291.242 366.999 290.838 367.656C290.434 368.314 289.845 368.818 289.07 369.17C288.302 369.521 287.368 369.697 286.268 369.697L286.268 369.697ZM299.246 372.881L299.246 367.842C299.246 367.464 299.178 367.139 299.041 366.865C298.904 366.592 298.696 366.38 298.416 366.23C298.143 366.081 297.798 366.006 297.381 366.006C296.997 366.006 296.665 366.071 296.385 366.201C296.105 366.331 295.887 366.507 295.73 366.729C295.574 366.95 295.496 367.201 295.496 367.48L293.152 367.48C293.152 367.064 293.253 366.66 293.455 366.27C293.657 365.879 293.95 365.531 294.334 365.225C294.718 364.919 295.177 364.678 295.711 364.502C296.245 364.326 296.844 364.238 297.508 364.238C298.302 364.238 299.005 364.372 299.617 364.639C300.236 364.906 300.721 365.309 301.072 365.85C301.43 366.383 301.609 367.054 301.609 367.861L301.609 372.559C301.609 373.04 301.642 373.473 301.707 373.857C301.779 374.235 301.88 374.564 302.01 374.844L302.01 375L299.598 375C299.487 374.746 299.399 374.424 299.334 374.033C299.275 373.636 299.246 373.252 299.246 372.881L299.246 372.881ZM299.588 368.574L299.607 370.029L297.918 370.029C297.482 370.029 297.098 370.072 296.766 370.156C296.434 370.234 296.157 370.352 295.936 370.508C295.714 370.664 295.548 370.853 295.438 371.074C295.327 371.296 295.271 371.546 295.271 371.826C295.271 372.106 295.337 372.363 295.467 372.598C295.597 372.826 295.786 373.005 296.033 373.135C296.287 373.265 296.593 373.33 296.951 373.33C297.433 373.33 297.853 373.232 298.211 373.037C298.576 372.835 298.862 372.591 299.07 372.305C299.279 372.012 299.389 371.735 299.402 371.475L300.164 372.52C300.086 372.786 299.952 373.073 299.764 373.379C299.575 373.685 299.327 373.978 299.021 374.258C298.722 374.531 298.361 374.756 297.938 374.932C297.521 375.107 297.039 375.195 296.492 375.195C295.802 375.195 295.187 375.059 294.646 374.785C294.106 374.505 293.683 374.131 293.377 373.662C293.071 373.187 292.918 372.65 292.918 372.051C292.918 371.491 293.022 370.996 293.23 370.566C293.445 370.13 293.758 369.766 294.168 369.473C294.585 369.18 295.092 368.958 295.691 368.809C296.29 368.652 296.974 368.574 297.742 368.574L299.588 368.574L299.588 368.574ZM306.98 373.848L309.852 364.434L312.371 364.434L308.133 376.611C308.035 376.872 307.908 377.155 307.752 377.461C307.596 377.767 307.391 378.057 307.137 378.33C306.889 378.61 306.58 378.835 306.209 379.004C305.838 379.18 305.389 379.268 304.861 379.268C304.653 379.268 304.451 379.248 304.256 379.209C304.067 379.176 303.888 379.141 303.719 379.102L303.709 377.305C303.774 377.311 303.852 377.318 303.943 377.324C304.041 377.331 304.119 377.334 304.178 377.334C304.568 377.334 304.894 377.285 305.154 377.188C305.415 377.096 305.626 376.947 305.789 376.738C305.958 376.53 306.102 376.25 306.219 375.898L306.98 373.848L306.98 373.848ZM305.359 364.434L307.869 372.344L308.289 374.824L306.658 375.244L302.82 364.434L305.359 364.434L305.359 364.434ZM316.072 366.582L316.072 375L313.719 375L313.719 364.434L315.936 364.434L316.072 366.582L316.072 366.582ZM315.691 369.326L314.891 369.316C314.891 368.587 314.982 367.913 315.164 367.295C315.346 366.676 315.613 366.139 315.965 365.684C316.316 365.221 316.753 364.867 317.273 364.619C317.801 364.365 318.41 364.238 319.1 364.238C319.581 364.238 320.021 364.31 320.418 364.453C320.822 364.59 321.17 364.808 321.463 365.107C321.762 365.407 321.99 365.791 322.146 366.26C322.309 366.729 322.391 367.295 322.391 367.959L322.391 375L320.037 375L320.037 368.164C320.037 367.65 319.959 367.246 319.803 366.953C319.653 366.66 319.435 366.452 319.148 366.328C318.868 366.198 318.533 366.133 318.143 366.133C317.7 366.133 317.322 366.217 317.01 366.387C316.704 366.556 316.453 366.787 316.258 367.08C316.062 367.373 315.919 367.712 315.828 368.096C315.737 368.48 315.691 368.89 315.691 369.326L315.691 369.326ZM322.244 368.701L321.141 368.945C321.141 368.307 321.229 367.705 321.404 367.139C321.587 366.566 321.85 366.064 322.195 365.635C322.547 365.199 322.98 364.857 323.494 364.609C324.008 364.362 324.598 364.238 325.262 364.238C325.802 364.238 326.284 364.313 326.707 364.463C327.137 364.606 327.501 364.834 327.801 365.146C328.1 365.459 328.328 365.866 328.484 366.367C328.641 366.862 328.719 367.461 328.719 368.164L328.719 375L326.355 375L326.355 368.154C326.355 367.62 326.277 367.207 326.121 366.914C325.971 366.621 325.757 366.419 325.477 366.309C325.197 366.191 324.861 366.133 324.471 366.133C324.106 366.133 323.784 366.201 323.504 366.338C323.23 366.468 322.999 366.654 322.811 366.895C322.622 367.129 322.479 367.399 322.381 367.705C322.29 368.011 322.244 368.343 322.244 368.701L322.244 368.701ZM335.799 375.195C335.018 375.195 334.311 375.068 333.68 374.814C333.055 374.554 332.521 374.193 332.078 373.73C331.642 373.268 331.307 372.725 331.072 372.1C330.838 371.475 330.721 370.801 330.721 370.078L330.721 369.688C330.721 368.861 330.841 368.112 331.082 367.441C331.323 366.771 331.658 366.198 332.088 365.723C332.518 365.241 333.025 364.873 333.611 364.619C334.197 364.365 334.832 364.238 335.516 364.238C336.271 364.238 336.932 364.365 337.498 364.619C338.064 364.873 338.533 365.231 338.904 365.693C339.282 366.149 339.562 366.693 339.744 367.324C339.933 367.956 340.027 368.652 340.027 369.414L340.027 370.42L331.863 370.42L331.863 368.73L337.703 368.73L337.703 368.545C337.69 368.122 337.605 367.725 337.449 367.354C337.299 366.982 337.068 366.683 336.756 366.455C336.443 366.227 336.027 366.113 335.506 366.113C335.115 366.113 334.767 366.198 334.461 366.367C334.161 366.53 333.911 366.768 333.709 367.08C333.507 367.393 333.351 367.77 333.24 368.213C333.136 368.649 333.084 369.141 333.084 369.688L333.084 370.078C333.084 370.54 333.146 370.97 333.27 371.367C333.4 371.758 333.589 372.1 333.836 372.393C334.083 372.686 334.383 372.917 334.734 373.086C335.086 373.249 335.486 373.33 335.936 373.33C336.502 373.33 337.007 373.216 337.449 372.988C337.892 372.76 338.276 372.438 338.602 372.021L339.842 373.223C339.614 373.555 339.318 373.874 338.953 374.18C338.589 374.479 338.143 374.723 337.615 374.912C337.094 375.101 336.489 375.195 335.799 375.195L335.799 375.195ZM344.197 366.689L344.197 375L341.844 375L341.844 364.434L344.061 364.434L344.197 366.689L344.197 366.689ZM343.777 369.326L343.016 369.316C343.022 368.568 343.126 367.881 343.328 367.256C343.536 366.631 343.823 366.094 344.188 365.645C344.559 365.195 345.001 364.85 345.516 364.609C346.03 364.362 346.603 364.238 347.234 364.238C347.742 364.238 348.201 364.31 348.611 364.453C349.028 364.59 349.383 364.814 349.676 365.127C349.975 365.439 350.203 365.846 350.359 366.348C350.516 366.842 350.594 367.451 350.594 368.174L350.594 375L348.23 375L348.23 368.164C348.23 367.656 348.156 367.256 348.006 366.963C347.863 366.663 347.651 366.452 347.371 366.328C347.098 366.198 346.756 366.133 346.346 366.133C345.942 366.133 345.581 366.217 345.262 366.387C344.943 366.556 344.673 366.787 344.451 367.08C344.236 367.373 344.07 367.712 343.953 368.096C343.836 368.48 343.777 368.89 343.777 369.326L343.777 369.326ZM357.84 364.434L357.84 366.152L351.883 366.152L351.883 364.434L357.84 364.434L357.84 364.434ZM353.602 361.846L355.955 361.846L355.955 372.08C355.955 372.406 356.001 372.656 356.092 372.832C356.189 373.001 356.323 373.115 356.492 373.174C356.661 373.232 356.86 373.262 357.088 373.262C357.251 373.262 357.407 373.252 357.557 373.232C357.706 373.213 357.827 373.193 357.918 373.174L357.928 374.971C357.732 375.029 357.505 375.081 357.244 375.127C356.99 375.173 356.697 375.195 356.365 375.195C355.825 375.195 355.346 375.101 354.93 374.912C354.513 374.717 354.188 374.401 353.953 373.965C353.719 373.529 353.602 372.949 353.602 372.227L353.602 361.846L353.602 361.846ZM367 366.465L367 379.062L364.646 379.062L364.646 364.434L366.814 364.434L367 366.465L367 366.465ZM373.885 369.619L373.885 369.824C373.885 370.592 373.794 371.305 373.611 371.963C373.436 372.614 373.172 373.184 372.82 373.672C372.475 374.154 372.049 374.528 371.541 374.795C371.033 375.062 370.447 375.195 369.783 375.195C369.126 375.195 368.549 375.075 368.055 374.834C367.566 374.587 367.153 374.238 366.814 373.789C366.476 373.34 366.202 372.812 365.994 372.207C365.792 371.595 365.649 370.924 365.564 370.195L365.564 369.404C365.649 368.63 365.792 367.926 365.994 367.295C366.202 366.663 366.476 366.12 366.814 365.664C367.153 365.208 367.566 364.857 368.055 364.609C368.543 364.362 369.113 364.238 369.764 364.238C370.428 364.238 371.017 364.368 371.531 364.629C372.046 364.883 372.479 365.247 372.83 365.723C373.182 366.191 373.445 366.758 373.621 367.422C373.797 368.079 373.885 368.812 373.885 369.619L373.885 369.619ZM371.531 369.824L371.531 369.619C371.531 369.131 371.486 368.678 371.395 368.262C371.303 367.839 371.16 367.467 370.965 367.148C370.77 366.829 370.519 366.582 370.213 366.406C369.913 366.224 369.552 366.133 369.129 366.133C368.712 366.133 368.354 366.204 368.055 366.348C367.755 366.484 367.505 366.676 367.303 366.924C367.101 367.171 366.945 367.461 366.834 367.793C366.723 368.118 366.645 368.473 366.6 368.857L366.6 370.752C366.678 371.221 366.811 371.65 367 372.041C367.189 372.432 367.456 372.744 367.801 372.979C368.152 373.206 368.602 373.32 369.148 373.32C369.572 373.32 369.933 373.229 370.232 373.047C370.532 372.865 370.776 372.614 370.965 372.295C371.16 371.969 371.303 371.595 371.395 371.172C371.486 370.749 371.531 370.299 371.531 369.824L371.531 369.824ZM378.25 366.445L378.25 375L375.896 375L375.896 364.434L378.143 364.434L378.25 366.445L378.25 366.445ZM381.482 364.365L381.463 366.553C381.32 366.527 381.163 366.507 380.994 366.494C380.831 366.481 380.669 366.475 380.506 366.475C380.102 366.475 379.747 366.533 379.441 366.65C379.135 366.761 378.878 366.924 378.67 367.139C378.468 367.347 378.312 367.601 378.201 367.9C378.09 368.2 378.025 368.535 378.006 368.906L377.469 368.945C377.469 368.281 377.534 367.666 377.664 367.1C377.794 366.533 377.99 366.035 378.25 365.605C378.517 365.176 378.849 364.84 379.246 364.6C379.65 364.359 380.115 364.238 380.643 364.238C380.786 364.238 380.939 364.251 381.102 364.277C381.271 364.303 381.398 364.333 381.482 364.365L381.482 364.365ZM382.254 369.834L382.254 369.609C382.254 368.848 382.365 368.141 382.586 367.49C382.807 366.833 383.126 366.263 383.543 365.781C383.966 365.293 384.48 364.915 385.086 364.648C385.698 364.375 386.388 364.238 387.156 364.238C387.931 364.238 388.621 364.375 389.227 364.648C389.839 364.915 390.356 365.293 390.779 365.781C391.202 366.263 391.525 366.833 391.746 367.49C391.967 368.141 392.078 368.848 392.078 369.609L392.078 369.834C392.078 370.596 391.967 371.302 391.746 371.953C391.525 372.604 391.202 373.174 390.779 373.662C390.356 374.144 389.842 374.521 389.236 374.795C388.631 375.062 387.944 375.195 387.176 375.195C386.401 375.195 385.708 375.062 385.096 374.795C384.49 374.521 383.976 374.144 383.553 373.662C383.13 373.174 382.807 372.604 382.586 371.953C382.365 371.302 382.254 370.596 382.254 369.834L382.254 369.834ZM384.607 369.609L384.607 369.834C384.607 370.309 384.656 370.758 384.754 371.182C384.852 371.605 385.005 371.976 385.213 372.295C385.421 372.614 385.688 372.865 386.014 373.047C386.339 373.229 386.727 373.32 387.176 373.32C387.612 373.32 387.99 373.229 388.309 373.047C388.634 372.865 388.901 372.614 389.109 372.295C389.318 371.976 389.471 371.605 389.568 371.182C389.673 370.758 389.725 370.309 389.725 369.834L389.725 369.609C389.725 369.141 389.673 368.698 389.568 368.281C389.471 367.858 389.314 367.484 389.1 367.158C388.891 366.833 388.624 366.579 388.299 366.396C387.98 366.208 387.599 366.113 387.156 366.113C386.714 366.113 386.329 366.208 386.004 366.396C385.685 366.579 385.421 366.833 385.213 367.158C385.005 367.484 384.852 367.858 384.754 368.281C384.656 368.698 384.607 369.141 384.607 369.609L384.607 369.609ZM398.367 373.32C398.751 373.32 399.096 373.245 399.402 373.096C399.715 372.939 399.965 372.725 400.154 372.451C400.35 372.178 400.457 371.862 400.477 371.504L402.693 371.504C402.68 372.188 402.479 372.809 402.088 373.369C401.697 373.929 401.18 374.375 400.535 374.707C399.891 375.033 399.178 375.195 398.396 375.195C397.589 375.195 396.886 375.059 396.287 374.785C395.688 374.505 395.19 374.121 394.793 373.633C394.396 373.145 394.096 372.581 393.895 371.943C393.699 371.305 393.602 370.622 393.602 369.893L393.602 369.551C393.602 368.822 393.699 368.138 393.895 367.5C394.096 366.855 394.396 366.289 394.793 365.801C395.19 365.312 395.688 364.932 396.287 364.658C396.886 364.378 397.586 364.238 398.387 364.238C399.233 364.238 399.975 364.408 400.613 364.746C401.251 365.078 401.753 365.544 402.117 366.143C402.488 366.735 402.68 367.425 402.693 368.213L400.477 368.213C400.457 367.822 400.359 367.471 400.184 367.158C400.014 366.839 399.773 366.585 399.461 366.396C399.155 366.208 398.787 366.113 398.357 366.113C397.882 366.113 397.488 366.211 397.176 366.406C396.863 366.595 396.619 366.855 396.443 367.188C396.268 367.513 396.141 367.881 396.062 368.291C395.991 368.695 395.955 369.115 395.955 369.551L395.955 369.893C395.955 370.329 395.991 370.752 396.062 371.162C396.134 371.572 396.258 371.94 396.434 372.266C396.616 372.585 396.863 372.842 397.176 373.037C397.488 373.226 397.885 373.32 398.367 373.32L398.367 373.32ZM409.158 375.195C408.377 375.195 407.671 375.068 407.039 374.814C406.414 374.554 405.88 374.193 405.438 373.73C405.001 373.268 404.666 372.725 404.432 372.1C404.197 371.475 404.08 370.801 404.08 370.078L404.08 369.688C404.08 368.861 404.201 368.112 404.441 367.441C404.682 366.771 405.018 366.198 405.447 365.723C405.877 365.241 406.385 364.873 406.971 364.619C407.557 364.365 408.191 364.238 408.875 364.238C409.63 364.238 410.291 364.365 410.857 364.619C411.424 364.873 411.893 365.231 412.264 365.693C412.641 366.149 412.921 366.693 413.104 367.324C413.292 367.956 413.387 368.652 413.387 369.414L413.387 370.42L405.223 370.42L405.223 368.73L411.062 368.73L411.062 368.545C411.049 368.122 410.965 367.725 410.809 367.354C410.659 366.982 410.428 366.683 410.115 366.455C409.803 366.227 409.386 366.113 408.865 366.113C408.475 366.113 408.126 366.198 407.82 366.367C407.521 366.53 407.27 366.768 407.068 367.08C406.867 367.393 406.71 367.77 406.6 368.213C406.495 368.649 406.443 369.141 406.443 369.688L406.443 370.078C406.443 370.54 406.505 370.97 406.629 371.367C406.759 371.758 406.948 372.1 407.195 372.393C407.443 372.686 407.742 372.917 408.094 373.086C408.445 373.249 408.846 373.33 409.295 373.33C409.861 373.33 410.366 373.216 410.809 372.988C411.251 372.76 411.635 372.438 411.961 372.021L413.201 373.223C412.973 373.555 412.677 373.874 412.312 374.18C411.948 374.479 411.502 374.723 410.975 374.912C410.454 375.101 409.848 375.195 409.158 375.195L409.158 375.195ZM421.15 372.139C421.15 371.904 421.092 371.693 420.975 371.504C420.857 371.309 420.633 371.133 420.301 370.977C419.975 370.82 419.493 370.677 418.855 370.547C418.296 370.423 417.781 370.277 417.312 370.107C416.85 369.932 416.453 369.72 416.121 369.473C415.789 369.225 415.532 368.932 415.35 368.594C415.167 368.255 415.076 367.865 415.076 367.422C415.076 366.992 415.171 366.585 415.359 366.201C415.548 365.817 415.818 365.479 416.17 365.186C416.521 364.893 416.948 364.661 417.449 364.492C417.957 364.323 418.523 364.238 419.148 364.238C420.034 364.238 420.792 364.388 421.424 364.688C422.062 364.98 422.55 365.381 422.889 365.889C423.227 366.39 423.396 366.956 423.396 367.588L421.043 367.588C421.043 367.308 420.971 367.048 420.828 366.807C420.691 366.559 420.483 366.361 420.203 366.211C419.923 366.055 419.572 365.977 419.148 365.977C418.745 365.977 418.41 366.042 418.143 366.172C417.882 366.296 417.687 366.458 417.557 366.66C417.433 366.862 417.371 367.083 417.371 367.324C417.371 367.5 417.404 367.66 417.469 367.803C417.54 367.939 417.658 368.066 417.82 368.184C417.983 368.294 418.204 368.398 418.484 368.496C418.771 368.594 419.129 368.688 419.559 368.779C420.366 368.949 421.059 369.167 421.639 369.434C422.225 369.694 422.674 370.033 422.986 370.449C423.299 370.859 423.455 371.38 423.455 372.012C423.455 372.48 423.354 372.91 423.152 373.301C422.957 373.685 422.671 374.02 422.293 374.307C421.915 374.587 421.463 374.805 420.936 374.961C420.415 375.117 419.829 375.195 419.178 375.195C418.221 375.195 417.41 375.026 416.746 374.688C416.082 374.342 415.577 373.903 415.232 373.369C414.894 372.829 414.725 372.269 414.725 371.689L417 371.689C417.026 372.126 417.146 372.474 417.361 372.734C417.583 372.988 417.856 373.174 418.182 373.291C418.514 373.402 418.855 373.457 419.207 373.457C419.63 373.457 419.985 373.402 420.271 373.291C420.558 373.174 420.776 373.018 420.926 372.822C421.076 372.62 421.15 372.393 421.15 372.139L421.15 372.139ZM431.443 372.139C431.443 371.904 431.385 371.693 431.268 371.504C431.15 371.309 430.926 371.133 430.594 370.977C430.268 370.82 429.786 370.677 429.148 370.547C428.589 370.423 428.074 370.277 427.605 370.107C427.143 369.932 426.746 369.72 426.414 369.473C426.082 369.225 425.825 368.932 425.643 368.594C425.46 368.255 425.369 367.865 425.369 367.422C425.369 366.992 425.464 366.585 425.652 366.201C425.841 365.817 426.111 365.479 426.463 365.186C426.814 364.893 427.241 364.661 427.742 364.492C428.25 364.323 428.816 364.238 429.441 364.238C430.327 364.238 431.085 364.388 431.717 364.688C432.355 364.98 432.843 365.381 433.182 365.889C433.52 366.39 433.689 366.956 433.689 367.588L431.336 367.588C431.336 367.308 431.264 367.048 431.121 366.807C430.984 366.559 430.776 366.361 430.496 366.211C430.216 366.055 429.865 365.977 429.441 365.977C429.038 365.977 428.702 366.042 428.436 366.172C428.175 366.296 427.98 366.458 427.85 366.66C427.726 366.862 427.664 367.083 427.664 367.324C427.664 367.5 427.697 367.66 427.762 367.803C427.833 367.939 427.951 368.066 428.113 368.184C428.276 368.294 428.497 368.398 428.777 368.496C429.064 368.594 429.422 368.688 429.852 368.779C430.659 368.949 431.352 369.167 431.932 369.434C432.518 369.694 432.967 370.033 433.279 370.449C433.592 370.859 433.748 371.38 433.748 372.012C433.748 372.48 433.647 372.91 433.445 373.301C433.25 373.685 432.964 374.02 432.586 374.307C432.208 374.587 431.756 374.805 431.229 374.961C430.708 375.117 430.122 375.195 429.471 375.195C428.514 375.195 427.703 375.026 427.039 374.688C426.375 374.342 425.87 373.903 425.525 373.369C425.187 372.829 425.018 372.269 425.018 371.689L427.293 371.689C427.319 372.126 427.439 372.474 427.654 372.734C427.876 372.988 428.149 373.174 428.475 373.291C428.807 373.402 429.148 373.457 429.5 373.457C429.923 373.457 430.278 373.402 430.564 373.291C430.851 373.174 431.069 373.018 431.219 372.822C431.368 372.62 431.443 372.393 431.443 372.139L431.443 372.139Z" id="Shape" fill="#000000" fill-rule="evenodd" stroke="none" />
        </g>
      </g>
    </g>
  </g>
</svg>